<svg xmlns="http://www.w3.org/2000/svg" viewBox="0 0 2000 934"><defs></defs><title>Resource 2</title><g id="Layer_2" data-name="Layer 2"><g id="Layer_1-2" data-name="Layer 1"><path style="fill:#fcfcfc;" d="M.09,933.91Q.09,469.26,0,4.59C0,.84.84,0,4.59,0Q1000,.15,1995.41,0c3.75,0,4.59.84,4.59,4.59q-.15,462.41,0,924.82c0,3.75-.84,4.59-4.59,4.59Q997.74,933.85.09,933.91Z"/><path style="fill:#002f65;" d="M397,595.91c10.07,1.63,15.09,8.59,18.74,17,1.45,3.35,2.94,6.7,4.64,9.94,6.6,12.55,4.81,24.38-3,35.69-6.94,10.11-16.66,17.12-26.8,23.6C379.37,689.37,367.32,695,355,700c-1.94.78-3.86,1.61-6.4,2.67,3,2.63,5.51,5.08,8.3,7.1,4.88,3.53,7,8.22,6.93,14.15-.09,6.82-.14,13.66,0,20.48.13,5.79-2.7,9.42-7.77,11.57a37.17,37.17,0,0,1-14.58,3q-39,.08-78,0a35.89,35.89,0,0,1-6.43-.73c-13.19-2.46-15.89-5.68-15.89-18.83,0-4.83.15-9.67,0-14.5-.25-6.49,1.95-11.62,7.32-15.48a30.77,30.77,0,0,0,7.55-7c-11.33-4.67-22.5-9.21-33-15.14-10.92-6.14-21.46-12.84-30.05-22.08s-14.85-19.78-11.67-32.88c2.55-10.5,7.58-20.2,13.73-29.13,2.95-4.29,7.72-6.15,12.87-7.46-10-18-17.67-36.68-22.14-56.6A194.38,194.38,0,0,1,181,496.07c0-39.15.1-78.3-.1-117.44,0-4.59,1.42-5.45,5.67-5.45q115.95.19,231.91,0c4.82,0,5.72,1.52,5.7,5.94-.16,37.65-.31,75.3,0,113a202.81,202.81,0,0,1-25.54,100.87C398.1,593.78,397.66,594.65,397,595.91Z"/><path style="fill:#002f65;" d="M933.21,635.91c.1,10,.1,20,1.61,29.9.54,3.53,2.23,5.86,5.44,7.07,4.81,1.82,9.67,3.52,14.52,5.23,2.57.9,4.94,6.59,3.65,8.89-.66,1.16-1.71.71-2.64.55-22-3.76-44.17-2.93-66.26-.7-4,.41-4.65-1.54-5.42-4.45-1.05-4,2.18-3.2,4.08-3.89,1.24-.45,2.54-.77,3.8-1.2,11.34-3.88,13.56-6.7,14-18.73q1.81-53.73,0-107.44a47.46,47.46,0,0,0-.64-5.95c-2-12.62-4.14-14.72-16.91-15.84-3.25-.29-4.94-.86-4.17-4.57.58-2.8-.32-5.71,4.77-5.16,22,2.39,43.91-.33,65.85-1.2,14.41-.57,28.23,1.5,40.79,9.09,26.36,15.94,27.89,50.15,3.1,68.39a54.72,54.72,0,0,1-14.95,7.86c-2.33.78-2.49,1.57-1.15,3.44,15.28,21.36,28.64,44.19,47.75,62.65,6.47,6.25,13.67,11.15,22.85,12.32,4.59.59,2.25,4,2.57,6.17.45,3.11-1.78,2.88-3.86,2.87a72.21,72.21,0,0,1-48.06-17.85c-20-17.14-35-38.27-48.77-60.38-2.14-3.44-4.4-4.93-8.27-4.71-4.43.26-10.11-2.2-12.94.62-2.58,2.56-.62,8.23-.73,12.52C933.12,626.24,933.21,631.07,933.21,635.91Z"/><path style="fill:#002f65;" d="M1298.76,563.53c0,17.1-.06,34.21,0,51.31.06,14.15-1.28,28.28,0,42.44.65,7.34,4.44,12,11.17,14.43,5.48,2,11.28,2.8,16.91,4.25,4.85,1.24,1.74,5.27,2.19,7.95s-2.1,1.87-3.53,1.71c-19.46-2.12-38.91-1.17-58.38,0-1.68.09-4.8,1.94-4.93-1.86-.1-3-1.64-6.94,3.67-7.46a45.76,45.76,0,0,0,5.36-1.16c9.19-2,11-4.05,11.72-13.3,1.18-16.28,2.06-32.58,2-48.91,0-19.31,1.41-38.63.06-57.94a60.81,60.81,0,0,0-.77-6.44c-2.2-12.29-5.74-16.15-18-18.62-4.45-.89-7.15-2.09-6.41-7.46.38-2.73.79-3.77,3.68-3.37,10.77,1.5,21.62,1,32.44.79a9.16,9.16,0,0,1,7.69,3.33q51.27,56,102.72,111.89c1.2,1.31,2.53,2.51,4.45,4.42,0-7.85.06-14.92,0-22q-.32-33-.73-65.95c0-.83,0-1.66-.08-2.5-.55-16.53-3.34-19.62-19.48-21.61a13.85,13.85,0,0,1-3.46-.39c-1.44-.59-4.7,1.58-4.07-2.24.45-2.81-.43-6.61,4.6-6.69,5.52-.07,11,.3,16.46.74,12.3,1,24.63,1,37,1,2.32,0,5.42-1.31,5.28,3.41-.11,3.65-.25,5.79-4.9,5.66-5.66-.15-10.94,1.62-14,7-2,3.6-2.11,7.69-2.27,11.66-1.74,44.12-1.7,88.26-1,132.4,0,2.19,1.94,5.87-1.2,6.45-3.53.65-7.6,1.79-11-2.08-8.88-10.15-18.18-19.93-27.31-29.86q-41.1-44.67-82.2-89.36a17.15,17.15,0,0,1-1.63-2.51Z"/><path style="fill:#002f65;" d="M1145.64,688.52c-45.64.11-81.62-37.85-81.7-86.19-.07-45.45,39-85.18,83.84-85.29,47.23-.11,84.3,37.16,84.31,84.78C1232.1,648.89,1192.69,688.41,1145.64,688.52Z"/><path style="fill:#002f65;" d="M767.56,688.52c-46.07-.11-81.69-38.3-81.53-87.4.16-44.76,39.91-84.28,84.59-84.07,47,.21,83.68,37.5,83.58,85C854.09,649.1,814.51,688.63,767.56,688.52Z"/><path style="fill:#002f65;" d="M1735.51,688.52c-45.67,0-81.57-38-81.58-86.33,0-45.66,39.32-85.3,84.48-85.16,46.94.16,83.76,37.52,83.7,84.92C1822,649,1782.5,688.53,1735.51,688.52Z"/><path style="fill:#002f65;" d="M267.82,213.82c-1.24-2.1-3.2-1.9-4.5-2.89-2.6-2-4-4.8-1.88-7.26,2-2.3,1.28-3.9.69-6.14-1.35-5.17,1.39-8.23,6.57-7.65a5.58,5.58,0,0,0,6-6.86c-.49-2.32-.45-4.47,1.74-5.71a4.86,4.86,0,0,1,6,1c1.83,1.8,3.57,3.23,6.43,2.56a2.88,2.88,0,0,1,2.47,1.3c2.09,5.93,8.84,10.58,4.42,18.49,4.88-2.65,4.75-2.62,3.53-6.94-1-3.53-1.22-7,4-6.81,2.25.08,2.16-1.59,2.72-2.86,2.48-5.55,3.75-5.94,8.89-2.83,2.62,1.59,4.81,2.46,7.64-.48,3.29-3.42,7.51-1.63,8.39,3a1.35,1.35,0,0,1,0,.49c-.6,4,6.46,4.43,4.4,8.88-1.42,3.07-3.8,5.75-1.82,9.66,3.31-2.13,6.72-5.85,11-1.56,3.83,3.82.31,6.79-1.92,10.32,3,.08,3.48-3.42,5.1-3.09,4.38.9,8-2.1,11.67-2.09s7.68,1.42,11.47,2.41c2.81.74,3.8,3.62,1.94,6.51a27.84,27.84,0,0,1-2,2.2c-1.33,1.67-.39,3.62-.05,5.21.22,1,2,0,3.09-.26,5.14-1.06,7.73,1.37,7,6.49-.53,3.53,1.86,6.86,5.06,6.82,2.25,0,4,.67,4.81,2.78.92,2.3.94,4.63-.91,6.51-1.56,1.59-3.08,2.47-2.28,5.62s-3,4.9-5.38,3.8c-5.42-2.48-7,3.39-10.86,4.07.49,1.78.85,3.61,1.5,5.32.72,1.9,1.87.44,2.77.09,6.15-2.4,6.38-2.43,9.25,3.66.79,1.66,2.13,1.3,3.22,1.82,2.61,1.25,4.48,2.95,4,6.15s-2.34,4.6-5.51,4.54c-.91,0-2.16-.5-2.56.82-1.15,3.85-3.74,4.24-7,3.06-.79-.28-1.67-.62-2.13.38-2.28,5-7.61,6-11.4,9-1.29,1-1.05,2.17-.09,3.77,1.87,3.12.25,6.39-3.16,6.49-2.19.06-4.1.14-6,1.32-3.25,2-5.19-3.23-9.09-1.47-3.67,1.66-5.27-2.27-6.77-5.06-.23-.44-.34-1.27-.6-1.31-5.24-.81-5.48-5.46-6.9-9.37a23.5,23.5,0,0,0-13.52,16,38.51,38.51,0,0,0,.11,18.81c1.36,5.73,5.34,9.4,10.36,12.14,6,3.3,13.21,4.52,18.13,10.06,1.08,1.22,3.48,1,5.6.43,5.62-1.45,10.49.53,12.53,4.67a9.23,9.23,0,0,1-.83,9.93c-2.5,3.5-6.16,4.47-10.17,3.68-6.17-1.21-12.28.06-18.41,0-4.41,0-8.8-.32-13.24-.18-9.42.31-18.86-.29-28.32.12-4.3.19-8.78-.13-13.18-.12-5.64,0-11.28-.06-16.91,0-4.59,0-9.16,0-13.76.18-6.26.28-9.88-4.34-9.36-10.33.48-5.63,4.7-9.44,10.8-8.21,7.26,1.46,13.12-.59,18.95-4.44a113.26,113.26,0,0,1,10.58-5.57,18.49,18.49,0,0,0,8-7.93c2.6-4.86,3.33-9.32-.37-14.25s-6.42-10.48-9.75-15.64a21.28,21.28,0,0,0-7.78-7.25c-1,2.25-2,4.34-3,6.41-.58,1.19-1.5,3.19-2.49,2.82-4.93-1.86-4.58,2.95-6.58,4.78-2.68,2.44-5.59,4.78-8.81.77-1.73-2.15-2.9,0-4.26.35-2.34.56-4.79,2.41-6.8-.34-1.9-2.59-.78-5,1-7.28.85-1.09,2.6-2,1-3.73s-2.67,0-3.79.68c-3.63,2.1-6.94,2.95-8.87-2-.66-1.67-2-1.52-3.24-1.7-2.54-.37-4.39-1.57-5-4.21-.64-3,1.39-4.13,3.61-5.14a1.33,1.33,0,0,0,.93-1.78c-1.33-1.24-2.46.65-3.77.7-2.83.11-6-.84-5.68-3.41.41-3.35-1.19-4-3.27-5.3a4.54,4.54,0,0,1-1.94-5.68c.71-2.18,2.37-3,4.62-3.06,1.23,0,2.91,1.11,3.14-1.65.35-4.15,3.85-4.59,6.18-2.81,4.18,3.19,6.15-1,10.34-.83-2.63-2.25-3.89-1.1-5.19-.7-3.7,1.16-6.45.56-6.36-4,0-1.82-1-2.22-2.13-2.88-2.36-1.36-3.76-3.3-3.23-6.15.5-2.7,1.79-4.66,4.88-4.74.48,0,1.33-.08,1.38-.27,1.21-5.1,5.21-4.46,9.11-4-.34-2.42-2.35-2.61-3.41-3.71-1.38-1.43-2.77-3.53-1.49-4.81,2.73-2.74,2.8-5.83,3.16-9.26s3.62-4.47,6.76-2.67c.93.54,1.25,2.21,3.13.6,3.51-3,5.2-2.4,6.63,2,.63,2,.79,2.78,3.43,2.48,3.75-.43,3.64,3.44,4.34,6.74,2.07-2.46,1.52-4,.18-5.71-1.58-2-2.77-4.32-.64-6.75,2.27-2.59,5-3,8.13-1.61C263.94,212.72,265.25,214.32,267.82,213.82Z"/><path style="fill:#002f65;" d="M510.7,555.12a41.56,41.56,0,0,0-3.58-2.16c-2.86-1.35-3.66-3-2.34-6.27,3.6-8.93,6.71-18.06,10.05-27.09,1.48-4,4.62-5.31,7.89-2.81s7,3.13,10.78,3.13q55.72.09,111.47,0c3.81,0,7.49-.6,10.8-3.11s6.64-1.12,7.5,2.85c2,9.1,3.83,18.22,5.68,27.34.66,3.24-2.46,7.28-5.65,7.75-1.28.18-1.28-.69-1.58-1.37a25.4,25.4,0,0,1-1.44-3.71c-2.76-10.93-10.53-15.31-21-15.63s-21-.14-31.48-.27c-3.43,0-5,1-5,4.88-.45,35.81-2.63,71.6-.72,107.42.34,6.33,1,12.6,2,18.87.67,4.47,2.83,7.12,7.27,8.37a61.53,61.53,0,0,0,13.25,2.3c3.42.19,4.18,1.42,3.6,4.52-.51,2.67.34,5.58-4.39,5.3-17.3-1-34.64-1-52-.47-7.83.25-15.69.31-23.45,1.19-5.89.66-4.73-3.47-5.5-6.52-1.08-4.27,2.51-2.57,4-2.88,6.18-1.24,12.53-1.56,18.56-3.71,3.67-1.31,5.92-3.44,6.11-7.52.4-8.65,1.16-17.29,1.3-25.94.54-32.82,1-65.63-.77-98.44-.26-4.92-1.59-7-6.7-7.1-9-.17-18-.64-27,0C523.38,535.1,518.33,538.93,510.7,555.12Z"/><path style="fill:#002f65;" d="M1478.7,555.18c-1.63-.95-2.87-1.81-4.22-2.45-2.56-1.21-3.12-2.81-2-5.57,3.61-9.29,6.94-18.69,10.43-28,1.34-3.58,4.56-4.73,7.7-2.31,3.3,2.54,7,3.09,10.79,3.09q55.74.11,111.48,0c3.82,0,7.49-.63,10.8-3.11s6.66-1.18,7.54,2.89c2,9.26,3.88,18.55,5.74,27.85.55,2.74-2.89,6.84-5.81,7.19-1.81.21-1.77-1.41-2-2.27-3.32-15-13.83-19.08-27.59-18.72-8.66.22-17.33.1-26,0-3.51,0-5,1.19-5,5-.43,36.64-2.8,73.27-.53,109.92.35,5.64,1.28,11.24,2,16.85.49,4.08,2.7,6.48,6.7,7.69a56.25,56.25,0,0,0,14.22,2.5c3.85.14,3.32,2.27,3,4.56s.63,5.68-3.94,5.19c-4.13-.44-8.32-.35-12.48-.47-21.33-.6-42.65-.32-63.94,1.08-1.35.08-3.29,1-3.86-1.09a44.37,44.37,0,0,1-1.18-7.34,9.71,9.71,0,0,1,2.68-.72c6.39-1.08,12.88-1.52,19.12-3.51,4.24-1.34,6.73-3.58,7.09-8.38,1.47-19.45,1.55-38.94,1.71-58.42q.27-32.76-1.24-65.46c-.24-5.42-2.2-7.05-7.27-7.09-10.48-.08-20.94-.83-31.42.72s-17.48,6.75-20.93,16.75C1479.84,552.58,1479.34,553.63,1478.7,555.18Z"/><path style="fill:#002f65;" d="M1129.1,414.5c7.09,9,13.27,18.31,21.43,26a23.93,23.93,0,0,0,10.62,6.24c1.21.3,2.84.06,2.47,2.2s-2,1.77-3.46,1.68a35.93,35.93,0,0,1-20.71-7.59,94.63,94.63,0,0,1-21.19-23.72c-2.72-4.29-6.28-3.39-9.91-3.6-1.49-.09-1.38,1.13-1.37,2.08.06,6.66.12,13.31.23,20,.06,3.24,1.77,5.19,4.91,6,1.61.41,3.19.9,4.78,1.39,1.4.43,1.58,1.6,1.53,2.8s-1,1.15-1.84,1a127.08,127.08,0,0,0-29.88-.16,2,2,0,0,1-2.43-1.88c-.19-1.41,1-1.6,2-1.72,6.42-.84,8.15-4.79,8.2-10.8.11-14.48.52-28.95-.24-43.42-.27-4.93-1.76-8.44-7.41-8.6-1.33,0-2.74-.11-2.52-2.17.19-1.83,1.31-2.11,2.79-1.92,11.16,1.44,22.27-.76,33.41-.45a32.5,32.5,0,0,1,14.87,3.6c13,7,13.41,21.84.88,29.52C1134.11,412.28,1131.77,413.2,1129.1,414.5Z"/><path style="fill:#002f65;" d="M821.49,428.46c0-13.18.22-25.67-.09-38.14-.18-6.86-1.54-7.74-8.39-8.6-1.39-.17-3.8.81-3.81-1.85s2.22-2,3.77-2c7.49.12,15,.32,22.47.48,1.38,0,2.7,0,2.77,1.94.07,2.16-1.5,1.77-2.73,1.91-4.52.5-6.6,2.88-6.88,7.54-1,18-.56,36-.67,53.94,0,1.69,1.48,4.19-1.22,5.12-2.31.79-4-.65-5.61-2.27q-23.16-23.13-46.44-46.13c-1.12-1.11-1.92-2.7-4.55-3.16,0,13.11-.07,26,.06,38.93,0,3.12,1.92,5.27,5,6.11,2.4.65,4.81,1.28,7.25,1.74,1.59.3,1.71,1.3,1.71,2.53s-.71,1.71-1.91,1.63c-9-.57-18-.26-27,0-1,0-2-.05-2.08-1.5a2,2,0,0,1,2-2.32c7.67-.13,7.69-5.39,8-11,.72-12.65.91-25.3.71-38-.13-8.72-1.24-10.13-9.36-12.84-1.63-.54-2.69-1.08-2.4-3,.32-2.23,2-1.29,3.09-1.29,4.33,0,8.67.36,13,.14,2.6-.14,3.94,1.3,5.47,2.82q22,21.85,43.93,43.68C818.81,426,820,427.08,821.49,428.46Z"/><path style="fill:#002f65;" d="M1558.7,449.48c-27.48-.68-45.24-26.41-34.82-49.52,6.82-15.12,24.38-24.7,41-22.36,18.68,2.63,31,14.19,33.55,31.64,2.43,16.3-10,33.49-28,38.63A45.12,45.12,0,0,1,1558.7,449.48Z"/><path style="fill:#002f65;" d="M1032.74,378.16c8.65,0,17.31.12,26-.07,2.8-.06,4,.58,3.54,3.53-.54,3.44-.93,6.91-1.39,10.37-.16,1.21-.36,2.34-2,2.26-1.5-.07-2.62-.46-2.5-2.29.39-5.94-3.37-7.58-8.34-8.37-6.85-1.1-13.59-.3-20.38.39-1.9.2-2.46,1.12-2.64,2.88a130.08,130.08,0,0,0-.74,19.93c.12,2.27.85,3.19,3.26,3.2a188.32,188.32,0,0,0,19.44-.86c3.13-.3,4.25-2.29,5-4.76.45-1.49,1.15-2.31,2.78-2.21,2.14.15,1.61,1.74,1.6,3,0,5.5-.15,11-.27,16.48,0,1.06.44,2.49-1.36,2.67-1.62.15-2.4-.64-2.68-2.23-1-5.42-4.67-7.11-9.73-7.29s-10.31-.19-15.47.1c-2,.11-3,.62-2.85,2.89.35,6.81.51,13.63.71,20.45.07,2.23.74,3.63,3.28,4.11,8.67,1.65,17.21,1.66,25.52-1.58a16,16,0,0,0,8.53-8c.76-1.5,1.37-3.37,3.54-2.41s.27,2.63.45,4a5.66,5.66,0,0,1-.28,2c-2.52,11.54-3.2,12-15,12-15.14,0-30.3-.77-45.42.65-1.62.15-4,1.07-4.12-2s2.34-1.82,3.63-2c4-.64,5.53-2.88,5.85-6.74a321.17,321.17,0,0,0,.31-50.87c-.28-3.68-2.56-4.67-5.57-5.06-1.38-.18-2.67-.26-2.54-2.21.14-2.12,1.64-1.66,2.91-1.66h27Z"/><path style="fill:#002f65;" d="M664,412.1c1.26-7.65.81-15.28.08-22.92-.41-4.18-1.68-7.09-6.7-6.39-1.67.24-3.53.24-3.32-2.35s2.2-1.56,3.42-1.6c9.65-.29,19.3-.47,29-.6,1.29,0,3.15-.78,3.49,1.61.36,2.56-1.52,2.47-3.13,2.78-7.71,1.48-9.08,2.43-9.42,10.22-.49,11.3-.59,22.64-.11,33.94.41,9.66,5.89,14.85,15.57,16.56a33.93,33.93,0,0,0,15.29-1c7.43-2.09,11.29-7.56,12.57-14.69,2.26-12.51,2-25.15.68-37.77-.5-4.75-2.79-7.22-7.72-7.23-1.54,0-4.09.78-3.82-2.37.24-2.81,2.42-1.63,3.84-1.65,7.16-.08,14.31-.05,21.47,0,1.2,0,2.84-.73,3.14,1.36s-1.17,2.52-2.76,2.57c-5.53.17-6.65,3.44-6.67,8.34-.07,11.47-.1,23-1.75,34.36-2.23,15.39-9.22,22.11-24.6,24a56,56,0,0,1-21.77-1.28c-11-3-16.65-10.55-16.73-21.87C664,421.42,664,416.76,664,412.1Z"/><path style="fill:#002f65;" d="M1640.26,378.24a152.63,152.63,0,0,0,28.44-.26c3.47-.4,4.37.75,3.84,4.06-.48,2.94-.38,6-.63,9-.1,1.14.7,2.82-1.51,3-1.46.13-2.66-.05-3.11-1.69-1.79-6.59-7.2-7.66-12.81-8.3-17.43-2-17.43-2-17.55,15-.08,11.19-.08,11.2,11.36,11.11a57.94,57.94,0,0,0,7-.28c3.2-.43,6.32-1.19,7.1-5.12a2.27,2.27,0,0,1,2.8-2.09c2,.25,1.65,1.78,1.63,3-.07,5-.18,10-.37,15,0,1.07.1,2.44-1.63,2.6s-2.43-.65-2.74-2.19c-.36-1.85-1-3.51-3.1-4.11-6.65-1.87-13.44-2.17-20.3-1.93-1.61.06-1.89.95-1.91,2.26,0,6.49-.84,12.95-.35,19.47.29,3.91,1.88,6.19,5.86,6.67a30.5,30.5,0,0,1,3.91.7c1.74.45,4.61-.48,4.39,2.67-.24,3.45-3.07,1.73-4.68,1.64a230.82,230.82,0,0,0-28,.07c-1.3.09-3.19,1.1-3.57-1.31-.34-2.16,1.41-2.41,2.84-2.67,4.44-.83,5.54-3.68,5.9-7.87,1.23-14.31.92-28.63.74-42.95-.11-8.82-.28-8.94-8.51-11.69-.92-.31-1.46-.62-1.48-1.61a1.41,1.41,0,0,1,1.47-1.58c2.49-.19,5-.49,7.47-.53C1628.6,378.18,1634.43,378.24,1640.26,378.24Z"/><path style="fill:#002f65;" d="M951.75,431.54c6.93-13.79,13.64-26.76,20-39.92,2.93-6.09,1.74-7.85-5-8.89-1.6-.24-3-.26-2.74-2.49s1.58-1.74,2.88-1.72c7.49.13,15,.24,22.49.41,1.21,0,2.83-.53,3,1.57.13,1.64-.66,2.32-2.27,2.6-5.61,1-8.89,4.69-11.36,9.53-9.34,18.35-20.68,35.68-28,55.06-.45,1.19-.77,2.42-2.61,2.48-2.08.07-2.43-1.3-3-2.66C936.8,428.09,926.21,409.8,916.6,391c-2.6-5.07-6.28-8.55-12.28-8.84-1.47-.07-2.61-.33-2.51-2.22.12-2.16,1.68-1.73,2.9-1.63,9.82.81,19.65.47,29.48.59,1.2,0,2.77-.52,2.84,1.69s-1.35,2.19-2.92,2.41c-5.6.8-5.67.87-3.37,6.22C936.83,403.45,943.26,417.48,951.75,431.54Z"/><path style="fill:#002f65;" d="M1319,413.08c0-8.32-.07-16.64,0-24.95,0-2.5-.79-3.6-3.34-3.74-5.33-.29-10.64-.46-15.91.61a10.29,10.29,0,0,0-8,6.11c-.42.93-.71,2.41-2.46,1.48-1.43-.75-1.87-1.7-1.25-3.22q2.17-5.31,4.27-10.63c.55-1.42,1.45-2.19,3-1.83,15.45,3.54,31.11,1.22,46.67,1.64,5.4.15,11,.81,16.23-1.55,1.3-.58,2.54-.17,2.92,1.64.79,3.73,1.7,7.44,2.61,11.15.44,1.76-.71,2.43-2,2.92s-1.68-.59-2-1.54c-1.66-5.47-6.11-6.62-11-6.89-4-.22-8,0-12-.14-2.69-.08-3.88.88-3.89,3.74,0,15.48-.95,31,0,46.43.5,8.05,1,8.56,8.91,9.68,1.45.2,3.15-.18,2.92,2.25s-1.94,1.87-3.33,1.85c-11-.18-22-.41-32.95.37-1.45.11-2.51.19-2.92-1.68-.46-2.15,1-2.06,2.24-2.36,10.84-2.71,10.91-2.7,11.24-13.88.17-5.82,0-11.64,0-17.46Z"/><path style="fill:#002f65;" d="M1198.8,377.71a39.27,39.27,0,0,1,9.53,1.15c1.12.32,2.52,1,3.38.63,7.22-3.2,6.13,1,5.41,5.59-.41,2.56.29,5.28.37,7.94,0,1.3,1.36,3.1-1,3.68-2,.49-2.37-1-3-2.49A18.89,18.89,0,0,0,1190,383.05c-4.25,1.4-7.2,4.13-8,8.72-.79,4.74,1.49,7.94,5.34,10.36,4.12,2.59,8.77,3.94,13.23,5.74,4.64,1.86,9.2,3.86,13.19,6.94,10.24,7.91,10.13,21.21-.39,28.76-8.23,5.91-17.51,6.57-27.21,4.95-3.35-.56-6.65-3.12-10.26.11-1.28,1.14-3.07,0-2.93-2.4.31-5.39-.82-10.59-2.36-15.72-.29-1-1.38-2.29.49-2.8,1.56-.42,3-.13,3.57,1.73,3.28,10.43,11.78,13.39,21.3,14.26,8.85.8,14.62-4.52,14.08-12.15-.3-4.28-2.71-7.16-6.3-8.93-4.76-2.34-9.68-4.38-14.59-6.39a53.55,53.55,0,0,1-9.83-4.8c-10.07-6.79-10.8-19.78-1.46-27.57C1183.67,379,1190.59,377.6,1198.8,377.71Z"/><path style="fill:#002f65;" d="M1392.1,378.48h14.48c1.31,0,2.79-.26,3,1.71s-1.08,2.51-2.79,2.52c-1,0-2,.16-3,.18-3.39.07-3.62,1.59-1.91,4.05,5,7.26,10.77,14,16.41,20.73,1.33,1.59,2,1,3-.33,4.38-6.26,8.94-12.4,12.8-19,2.12-3.65.82-5.19-2.91-5.67-1.16-.14-2.3-.44-3.46-.47-1.55,0-1.91-.81-1.91-2.2,0-1.63.85-2,2.2-1.88,1.16.06,2.33,0,3.49.12,5.81.37,11.61,1,17.44.11,1.18-.19,2.75-.66,3,1.46s-.72,2.64-2.52,2.68c-4.77.08-7.17,3.1-9.51,6.88-4.54,7.35-9.59,14.38-14.5,21.49a9.74,9.74,0,0,0-2.14,5.94c.13,6.66.37,13.33,0,20-.27,5.47,1.89,7.95,7.28,8.13,1.51.05,4.31-.75,3.8,2.37-.42,2.53-2.74,1.36-4.14,1.21-8.84-.95-17.62,0-26.43.43-1.25.06-3.63,1.4-3.73-1.54-.07-2.24,1.81-1.92,3.23-2.13,6.64-1,7.52-2,7.7-8.57.55-20.42.57-20.44-12.88-36.1-3.57-4.16-7.28-8.21-11-12.3-2.83-3.16-5.93-5.86-10.53-5.91-1.23,0-2.38-.17-2.37-1.82,0-2.11,1.56-1.76,2.84-1.77,5,0,10,0,15,0Z"/><path style="fill:#002f65;" d="M1255.94,448.17c-5.66,0-11.31,0-17,0-1.16,0-2.84.74-3-1.45s1.39-1.89,2.64-2.09c11.05-1.72,11.61-.78,12.22-15a283.09,283.09,0,0,0-.67-38.41c-.59-6.43-1.55-7.52-8.08-8.45-.82-.11-1.64-.3-2.47-.33-1.65-.06-2.93-.32-2.7-2.51s1.64-1.7,2.92-1.66c5.32.17,10.64.5,16,.53,5.82,0,11.64-.26,17.46-.33,1.56,0,3.64-.52,3.5,2.18-.12,2.46-2.08,1.58-3.4,1.68-8,.6-9.09,1.59-9.48,9.57-.74,15-.86,29.93-.16,44.9.32,7,.82,7.38,8,7.77.66,0,1.33,0,2,.06,1.17.05,2.3,0,2.36,1.75.06,2-1.16,2-2.58,2-5.82,0-11.65,0-17.47,0Z"/><path style="fill:#002f65;" d="M871.1,448.18c-5.83,0-11.65,0-17.48,0-1.07,0-2.44.46-2.7-1.31-.3-2,1.13-2.07,2.48-2.23,12.06-1.44,11.62-2.2,12.36-15.41a274.35,274.35,0,0,0-.67-37.92c-.53-6.4-1.55-7.57-8.05-8.51-.82-.12-1.64-.28-2.47-.34-1.6-.1-3-.28-2.75-2.5.24-2,1.65-1.72,2.95-1.67,3.66.13,7.32.43,11,.43,7.32,0,14.64-.2,22-.22,1.47,0,3.66-.84,3.86,1.81.22,2.86-2.07,1.93-3.53,2-7.74.59-8.78,1.53-9.24,9.28-.92,15.3-.63,30.61-.3,45.93.12,5.25,2.48,7.16,7.31,7,1,0,2,.07,3,.07,1.39,0,2.15.57,2.14,2.07,0,1.76-1.19,1.67-2.38,1.67H871.1Z"/><path style="fill:#fefefe;" d="M302.9,376.1c37.81,0,75.62.06,113.43-.1,3.88,0,4.95.93,4.93,4.89q-.28,40.46,0,80.93c0,3.61-.5,5.12-4.75,5.11q-113.93-.23-227.85,0c-3.9,0-5-1-5-4.94q.27-40.47,0-80.94c0-4.38,1.41-5,5.35-5C227,376.16,264.92,376.1,302.9,376.1Z"/><path style="fill:#fefefe;" d="M315.45,581c-.68,3.93-1.7,6.53-3.63,8.68-6.24,7-8.71,14.45-2.4,22.92C297,612.55,296,604.16,295.83,595c-1.59,3.27-.73,6.32-.7,9.28,0,3.45-.88,6-3.84,8.09s-5.67,4.62-8.56,6.87c-4,3.11-8.24,3.92-12.76.93-1.91-1.27-2.32,2-4.39,1.36.53-2.21,1.57-3.79,4.1-4,3.55-.23,7.57-.31,8.37-4.65a12.78,12.78,0,0,0-4.57-12.5c-4.28-3.57-9.12-5.19-14.85-3.91-3.17.72-6.48,1.54-9.84.52,2.36-5,1.21-6.87-4.17-7-2.46-.08-5.66.2-2.74-3.84a1,1,0,0,0,0-.87c-1.54-2.52-1.78-2.83.35-4.6,8.5-7.09,17.74-13,29-14.42A41.87,41.87,0,0,0,283,562.74c13.73-6.1,27.77-10.45,43-5.83,24,7.28,34.4,29.56,24.57,52.55-2.78,6.49-6.44,12.4-12,16.91-2,1.63-3.12,3.89-4.33,6a92.66,92.66,0,0,1-19.3,23.38c-5.25,4.7-11.26,7.6-18.53,7.35-5.15-.18-6.58-1.95-5-6.95a32.32,32.32,0,0,1,9.48-13.85A151.7,151.7,0,0,1,317.16,630c2.33-1.6,4.64-3.25,6.82-5a6.64,6.64,0,0,0,2.71-5.66c-.31-2.36-3-1.39-4.6-1.77-4.65-1.13-8.94-2.58-11.7-6.87-3.66-5.69-3.6-10.64.31-16.18,1.54-2.18,3.24-4.24,4.6-6.52C316.33,586.19,317.53,584.26,315.45,581Z"/><path style="fill:#fefefe;" d="M331.93,726.06H274.21c11.2-10.11,6.48-23,6.46-34.83,0-8-6.16-13.29-12.74-17.43-6.2-3.9-12.9-6.85-19.55-9.87a155.65,155.65,0,0,1-30.81-18.26c-2.32-1.79-2.83-3-.9-5.5,3.73-4.87,7-10,10.7-15.35a295.18,295.18,0,0,0,57.45,55.69c4.56,3.35,9.39,6.31,13.91,9.7,2.73,2,4.79,1.72,7.55-.09A297,297,0,0,0,373,630.41c1.46-1.78,2.94-3.55,4.6-5.55,3.85,5.58,7.41,11,11.26,16.2,1.7,2.3.28,3.06-1.2,4.26C376.84,654.08,364.6,660.38,352,666a101.49,101.49,0,0,0-17.1,9.17c-7.29,5.11-11.46,11.89-11.09,21.08.11,2.66,0,5.32,0,8C323.78,712,322.65,720.1,331.93,726.06Z"/><path style="fill:#fefefe;" d="M192.71,612c.43,9.27,4,16.75,9.78,23.3,11.09,12.53,24.77,21.51,39.7,28.77,7.76,3.78,15.74,7.07,23.22,11.43,8.78,5.11,13.74,12.21,13,22.81-.36,5.11-.06,10.27-.06,16.56-5.56-8.54-13.43-11.92-21.38-15.11-19.31-7.75-38.22-16.22-54.52-29.53-7-5.75-13.09-12.27-16.75-20.74-2.68-6.17-3.63-12.59-1.25-18.93S189.92,618.2,192.71,612Z"/><path style="fill:#fefefe;" d="M326.6,714.84c0-9-.7-16.51.46-23.93,1.1-7,6-11.32,11.61-14.84,7.2-4.49,15.09-7.66,22.73-11.3,15.29-7.29,29.33-16.36,40.71-29.11,6-6.68,9.77-14.24,9.09-23.56,12.76,13.93,13.81,32.4,2.31,47-10.88,13.81-25.74,22.43-41.19,30-10.13,5-20.64,9.13-31,13.68A32.24,32.24,0,0,0,326.6,714.84Z"/><path style="fill:#fefefe;" d="M244.07,721.22c7.26,6.92,15.64,8,24.44,7.94,23.49-.1,47,0,70.47,0,7.86,0,15.2-1.6,21.77-7.84,0,9.16.17,17.67-.1,26.16-.09,2.59-2.4,4.28-4.73,5.42a28.6,28.6,0,0,1-12.5,3.09q-41,.1-81.95,0a30.9,30.9,0,0,1-8.77-1.65c-7.15-2.19-8.63-4.37-8.63-11.85Z"/><path style="fill:#fefefe;" d="M247,523c0-13.41.08-25.7-.05-38,0-3.31,1.84-4.89,4.43-5.84A15.07,15.07,0,0,1,266,481.23c1.89,1.34,3.71,3.27,6.17,2.88,5.94-1,6.14,2.27,6,6.85-.3,9.8-.2,19.61,0,29.41.05,2.89-.89,3.62-3.66,3.58a23.05,23.05,0,0,1-9.07-2.37C259.34,518.9,253.36,517.78,247,523Z"/><path style="fill:#fefefe;" d="M244.09,523.09c-6.51-5.37-12.63-4.25-18.82-1.35a30.18,30.18,0,0,1-3.72,1.39c-7.32,2.33-8.58,1.41-8.58-6.18,0-9.47.08-18.94-.05-28.42,0-2.92.26-4.88,3.92-4.32,3,.46,5.46-.93,7.77-2.7a15.2,15.2,0,0,1,9.69-3.35c7.16.13,9.79,2.78,9.79,9.9C244.1,499.35,244.09,510.65,244.09,523.09Z"/><path style="fill:#fefefe;" d="M357.33,523c-7.21-6.17-13.76-3.62-20.31-.84a20.94,20.94,0,0,1-2.32.89c-7.39,2.21-8.57,1.34-8.57-6.33,0-9.49.11-19-.07-28.45-.06-3.13.61-4.72,4.06-4.19,3,.46,5.46-.92,7.78-2.67a15.17,15.17,0,0,1,10.7-3.32c6.5.53,8.72,2.9,8.73,9.42Z"/><path style="fill:#fefefe;" d="M360.13,523c0-13.31.07-25.6-.05-37.89,0-3.27,1.75-4.91,4.34-5.92A14.88,14.88,0,0,1,379.08,481c2.17,1.51,4.27,3.45,7.14,3.05,4.19-.59,5.27,1,5.15,5.15-.31,10.29-.19,20.6-.05,30.9,0,2.79-.73,3.79-3.63,3.7a23.86,23.86,0,0,1-9.06-2.38C372.56,518.75,366.57,517.68,360.13,523Z"/><path style="fill:#f7f8fa;" d="M289.82,511c0,6.15-.18,12.32.07,18.47.14,3.39-.7,4.67-4.35,4.55-8.32-.28-16.65-.11-25-.08-3.93,0-7.84-.42-11.43,2.18a6.26,6.26,0,0,1-7.15,0c-3.9-2.79-8.17-2.2-12.42-2.22-8.33,0-16.65-.09-25,0-2.51,0-3.5-.59-3.48-3.32.12-13.15,0-26.3.08-39.45,0-1.18-.6-3,1.51-3s1.41,1.9,1.42,3c.06,11.15.37,22.32-.11,33.45-.23,5.37,1.61,6.51,6.48,6.2,6.3-.4,12.64-.13,19-.09,4.27,0,8.58-.57,12.5,2.14a5.3,5.3,0,0,0,5.3.53c8-4.32,16.55-2.16,24.88-2.68,4.62-.29,10.54,2,13.52-.89,3.24-3.09,1-9.14,1.13-13.88.19-8.32,0-16.65.08-25,0-1-.58-2.62,1.17-2.79,2.1-.21,1.76,1.54,1.76,2.78C289.83,497.63,289.82,504.29,289.82,511Z"/><path style="fill:#f7f8fa;" d="M403.05,510.87c0,5.83-.38,11.7.11,17.49.41,4.86-1.5,5.73-5.82,5.56-7.82-.32-15.66-.11-23.49-.09-3.94,0-7.85-.4-11.46,2.15a6.36,6.36,0,0,1-7.17,0c-3.76-2.66-7.86-2.15-12-2.16-8.17,0-16.33-.14-24.49,0-3.11.07-4.42-.58-4.37-4,.19-12.82.05-25.65.1-38.48,0-1.18-.67-3.13,1.27-3.22,2.44-.11,1.53,2.11,1.54,3.35.08,11,.34,22-.09,33-.2,5.28,1.59,6.59,6.53,6.27,6.3-.42,12.66-.13,19-.1,4.28,0,8.57-.51,12.52,2.15a5.63,5.63,0,0,0,5.78.35c6.82-3.88,14.25-2.19,21.45-2.47a98.2,98.2,0,0,1,12.49,0c4.36.38,5.24-1.42,5.15-5.42-.25-11.16-.13-22.33,0-33.49,0-1.25-1-3.48,1.19-3.63,2.86-.2,1.63,2.37,1.66,3.71.13,6.33.06,12.66.06,19Z"/><path style="fill:#fafafb;" d="M281.06,486.29c3,.48,3,2.31,3,4.21,0,11.32-.11,22.63.06,34,0,3-1,3.59-3.74,3.53-7.16-.17-14.32,0-21.47-.07-3.63,0-7.26-.34-10.41,2.18-1.18.94-3,1.39-4.28.61-7.37-4.64-15.51-2.18-23.3-2.76-4.44-.33-10.24,1.82-13-.8s-.77-8.49-.85-12.92c-.14-7.82,0-15.64,0-23.47,0-2-.22-4.12,3.09-4.51,0,11.8.19,23.54-.1,35.27-.1,4.27,1.32,5.44,5.38,5.28a30.18,30.18,0,0,0,11.53-2.74c5.49-2.5,10.79-3.24,15.68,1.49a4,4,0,0,0,5.87-.06c4.72-4.49,9.84-4,15.22-1.57a29.54,29.54,0,0,0,13,2.87c3.24,0,4.35-1.06,4.3-4.35-.17-11.15-.07-22.3-.06-33.45C280.91,488.16,281,487.34,281.06,486.29Z"/><path style="fill:#fdfefe;" d="M339.52,726.29c-4.72,1.26-7.51-2.32-9.34-5.9-2-4,.6-7.26,3.72-9.87,9.18-7.69,12-7.35,22.76,2.73,3.26,3,3.29,5.37-.25,8.17C351.62,725.19,345.89,726.07,339.52,726.29Z"/><path style="fill:#fefefe;" d="M264.26,726.24c-5.22-.17-10.24-1.1-14.67-4-4.61-3.06-4.81-5.81-.76-9.37a34,34,0,0,1,5.41-4.38c2.23-1.28,3.18-5.43,6.67-3.78,5.63,2.66,12,4.87,14.09,11.61C276.68,721.76,271.15,726.63,264.26,726.24Z"/><path style="fill:#fdfdfd;" d="M200.36,627.83c-3.28-6.43-4.94-12-3.36-18.21a14.52,14.52,0,0,1,6.89-9.39c3.3-1.91,5.83-1.93,8.08,2.07,3.17,5.63,7.09,10.84,10.66,16.25.52.78,1.64,1.5,1.14,2.56-.63,1.34-2.07.84-3.12.74-3.61-.35-6.82-1.6-8.64-5-1.3-2.47-2.48-2.23-3.91-.13C205.68,620.24,203.2,623.75,200.36,627.83Z"/><path style="fill:#fdfdfd;" d="M404.48,627.68c-2.72-3.9-5.1-7.27-7.43-10.68-1.39-2-2.65-3.18-4.15-.06a8,8,0,0,1-4.4,3.86c-2.32.93-5.41,2.31-7,.45-1.42-1.64,1.55-3.54,2.64-5.27,3.08-4.92,6.49-9.65,9.45-14.65,1.55-2.6,3.31-2.87,5.77-1.85,5.07,2.08,7.87,6,8.77,11.23C409.12,616.52,407.87,621.92,404.48,627.68Z"/><path style="fill:#eef1f4;" d="M396.9,527c-3.37,1.9-7,.64-10.52.81-5.32.25-10.65.06-16,.06-2.81,0-5.52-.17-8,1.87a5,5,0,0,1-6.11.45c-4-2.87-8.48-2.3-12.9-2.31-6.5,0-13-.11-19.48,0-2.64.06-3.87-.47-3.82-3.51.16-11.31.07-22.63.05-33.95,0-1.91,0-3.71,3.26-4.33v12.2c0,8,.14,16-.06,24-.09,3.31,1.1,4.36,4.3,4.37a32,32,0,0,0,13.49-3.06c5.06-2.32,9.95-2.54,14.38,1.49,2,1.85,4.4,2,6.31.21,4.8-4.44,9.92-3.93,15.25-1.43a25.54,25.54,0,0,0,17,2.06A3.07,3.07,0,0,1,396.9,527Z"/><path style="fill:#fcfdfd;" d="M381.11,625c5.1-.32,9.43-.92,12.42-4.58,1.14-1.39,1.74-1,2.55.17,1.87,2.75,3.71,5.52,5.69,8.19,1.25,1.67.24,2.75-.72,3.88a48.63,48.63,0,0,1-8.73,8.57Z"/><path style="fill:#fcfdfd;" d="M223.7,625.06c-3.52,5.15-6.79,9.88-10,14.66-.85,1.27-1.61,1.48-2.7.36-.69-.72-1.44-1.37-2.15-2.07-7.7-7.55-7.68-9.76,0-17.48.79-.79,1.31-1.55,2.28-.35C214.22,624,218.68,624.52,223.7,625.06Z"/><path style="fill:#f9fafb;" d="M297.92,623.15c.68-3.21,3.55-3.17,4.69-4.95-3.77-1.56-5.81,1.91-8.87,2.74,1.73-4,4.67-6.22,9.17-5.93,6.84.45,13.29,2.7,19.81,4.57.76.21,1.8.33,1.44,1.5s-1.61.89-2.53.92C313.85,622.21,306,621.29,297.92,623.15Z"/><path style="fill:#fbfcfc;" d="M396.9,527c-1.07-.06-2.22.1-2.88-1.07V486.47c2.74-.35,3.21,1.15,3.19,3.14Q397.06,508.3,396.9,527Z"/><path style="fill:#f6f7f9;" d="M263.43,613.09l-1.9-4.3c-.44,2.53-.73,4.16-1.09,6.22-2.7-5.29-1.46-8.6,3.35-10.37,2.46-.91,5.19-.8,7.51-2.46,1.39-1,2.31.78,2.92,1.85,1,1.72,2.24,3.67,1.55,5.56-.44,1.19-2.37.68-3.68.43C266.19,608.88,266.2,608.88,263.43,613.09Z"/><path style="fill:#fefefe;" d="M933.86,568.39c.33-9.64-.06-19.31,1-28.93.82-7.07,3.11-9.18,10.29-9.43,6.18-.22,12.29.08,18.26,1.94,18.81,5.84,29.42,27.31,22.34,45.7-4.54,11.82-14.57,16.28-26.08,18.1-7.58,1.2-15.26.84-22.92.39-2.42-.15-3-1-3-3.3C933.94,584.71,933.86,576.55,933.86,568.39Z"/><path style="fill:#fefefe;" d="M1204.13,616.29c-.69,20-6.53,37.57-22.66,50.26-17.34,13.64-43.5,10.89-61.59-6.11-14.68-13.79-22.11-31.36-25.8-50.71-2.59-13.51-3.28-27.1.61-40.56,5.42-18.77,15.71-33.38,35.84-37.66,20.48-4.35,37.31,3.25,50.68,18.78,13,15.13,19.13,33.25,21.74,52.72C1203.55,607.46,1203.76,612,1204.13,616.29Z"/><path style="fill:#fefefe;" d="M826.23,616.41a69,69,0,0,1-8.51,33.51c-14.5,26.21-43.26,33.1-68.21,16.37-13.06-8.76-21.57-21.14-27.09-35.55-8.22-21.45-11.74-43.48-4.18-65.83,6.65-19.64,19.52-32.89,41.33-34.39,17.92-1.23,32.33,6.34,43.76,19.76C816.26,565.46,822.45,583.53,825,603,825.6,607.45,825.84,611.94,826.23,616.41Z"/><path style="fill:#fefefe;" d="M1793.92,613.77c.12,12.52-1.76,22.06-5.86,31.15-17.56,39-56.43,36.23-78.47,15.26C1695,646.3,1687.67,628.7,1684,609.35c-2.86-15.07-3.08-30.1,2-44.85,12.6-36.26,53-45.82,80.62-19,14.3,13.86,21.42,31.39,25.17,50.52A101.49,101.49,0,0,1,1793.92,613.77Z"/><path style="fill:#fefefe;" d="M329.65,284.85c-14.17,7.79-17.23,19.79-15.77,34.24,1.69,16.65,16.17,19,27.66,25.06-4.17,2.11-10.32.93-12.73-2.07a11.14,11.14,0,0,0-5.21-3.75c-9-2.87-12-9.75-12.57-18.38a79.25,79.25,0,0,0-1.73-12c-2,7.55-1.31,14.93,1,22.28,2.58,8.11,11.33,9,17.24,14.39a46.78,46.78,0,0,1-9.32.85c-3,.08-7,.66-9.05-3.91-2-4.33-7.58-3.65-10.36,1.16-1.41,2.43-2.56,3.62-5.23,2.19-3-1.59-1.19-3.84-.46-5.54,1.9-4.39,4.78-8.4,4-13.85-2.15,4.06-4.54,8-6.38,12.24-1,2.38-2.26,3.28-4.78,3.07-1.81-.15-4-.09-5.21,1.28-3.4,3.94-7.51,3.22-12.55,2.25,4.62-2.43,8.67-4.59,12.75-6.68a21.28,21.28,0,0,0,9.33-8.73c3.2-5.84,4.72-11.4,0-17.46-3.16-4-5.34-8.79-8-13.23a33.65,33.65,0,0,0-11-11.29c4.74-3.09,8.29-6.69,8.27-13.27,3.19,3,3.33,6.5,3.27,9.87-.18,9.27,4.88,15.59,11.52,21.08,2.69,2.22,4.61,1.27,4.57-1.89-.12-11.13.76-22.81-11.94-28.76-.85-.39-1.35-.75-.87-1.81,1.58-3.5,5-1.85,7.49-2.58,2.75-.8,1.59,2,1.69,3,.71,7.32,5.17,12.87,8.63,18.89,1.71,3,3.14,1.83,4-.62,1.65-4.92,3.06-10,2.08-15.19-.77-4.06-.52-7.57,2.19-10.7,1.84,1.87,1.84,1.87,7.71,0-5,7-5.23,14.42-5.72,21.79-.08,1.22-1.08,2.95.49,3.6,1.85.76,2.38-1.33,3.29-2.37,1.74-2,3.37-4.09,5.42-6.61C322.7,287.78,326.77,284.15,329.65,284.85Z"/><path style="fill:#fcfcfd;" d="M309,266.44c-4.34-4.75-7.85-7.91-12.5-9.55,2.43,2.71,4.91,5.2,7,8,.94,1.26,3.32,3.05,1.56,4.5s-5.5.78-6.16-1.14c-1.39-4.06-3.51-2.12-5.63-1.55-1.28.35-2.65.92-3.73-.16a2.75,2.75,0,0,1-.32-3.67c2.47-3.4-.13-3.88-2.49-4.43-2.71-.64-4.71-1.46-1.84-4.4a1.88,1.88,0,0,0,.47-2.22c-1.61-4-1.24-6.44,4-4.68a1.32,1.32,0,0,0,1.73-.48c3.29-6,4.54-.2,5.74,1.3,1.53,1.93,2.2,4.17,5.19,2,2.17-1.58,2.33.71,2.93,1.85,1.24,2.31,0,5.87,4.61,6.56C311.2,258.6,308.68,262.58,309,266.44Z"/><path style="fill:#fdfdfd;" d="M315.1,255.41c.43-5.71,4.17-9.59,5.2-15.4-3.91,3.72-5.4,7.84-7.9,13.05-.84-4.15-3.62-6.84.87-9.5,2-1.16.29-2.91.05-4.45-.44-2.77-3.43-7,3.2-6.33.33,0,.79-.55,1.07-.93,4.16-5.69,4.19-5.72,10-8.71.87,2.36.13,5.46,4,6.44,2,.52.31,3.1-.84,4.48s-3.5,2.23-1.23,5.12c1.38,1.75-2.06,2.29-3,3.61s-5.76,1.48-1.17,4.39c1.43.9-.17,2.07-.88,2.76A24.67,24.67,0,0,1,315.1,255.41Z"/><path style="fill:#fcfcfd;" d="M362.67,233.92l-6.3,3.48c-1.63-2.82,2.2-7.2-3-8.58-.63-.17-.11-.82.15-1.13a1.69,1.69,0,0,1,2.22-.54c3.66,2.88,5.8.77,8.12-2,1.3-1.57,3.08-2.65,4.71.13,1.32,2.27,3.2.73,4.85.25s3.39-1.42,4.4.49-.4,3.42-1.91,4.59c-.92.71-1.92,1.31-2.82,2-1.69,1.38-3.05,2.61-.16,4.43,2.58,1.62,1.53,2.88-.93,3.37a32.46,32.46,0,0,1-3.95.44c-2.7.19-6.56-.67-3.36,4.28,1,1.55-.32,2.38-1.66,2.92a13.77,13.77,0,0,1-5.86.87c-1.93-.1-4.68.81-5.46-1.25-.9-2.39,1.38-4.25,3.18-5.64C357.91,239.75,361.3,237.93,362.67,233.92Z"/><path style="fill:#fbfcfc;" d="M238.18,224c-.08,5.94,3,8.91,6.15,11.81,4.51,4.18,4.57,4.76,0,9.46-.86-4-2.16-7.18-7.24-5.11-1.58.65-2.07-1.34-2.77-2.35-.86-1.24.32-1.81,1.16-2.2,3.48-1.63,1.78-2.67-.32-3.82a47,47,0,0,1-4.23-2.6c-1.07-.75-1.76-2.14-.35-2.78,3.34-1.51,2.65-4.11,2.42-6.74-.1-1.12-.35-2.47.87-3.16,1.43-.8,2.15.57,2.82,1.35,3.17,3.72,4.63.63,6.08-1.56,3.85.85-.47,11.61,8.64,5.82-1.92,10,6.47,7.95,11.48,10.31-5.24.34-10.33.18-15.31,1.67-1.84.55-3.11-1.67-4.24-3C241.7,229.08,240.3,226.89,238.18,224Z"/><path style="fill:#fcfcfd;" d="M268.55,262.22a11.43,11.43,0,0,1,2.48,6.62c.1,1.93.66,3.08,2.66,1.65,1.41-1,1.87.09,2.06.93.46,2.05,1.91,4.68.53,6.14-1.64,1.74-3.54-.7-5.15-1.59-3.27-1.81-6-4.55-10.37-6.22,2.52,6.38,9.73,7.22,12.05,12.76a9.29,9.29,0,0,1-5.55,1.6c-2.18.12-4.19.26-2.9-3.07.95-2.45-1.21-2-2.54-2.45-2.48-.79-7.74,1-4.77-5.16.74-1.54-1.49-1.93-2.65-2.22-2.46-.61-3.37-1.18-1-3.37,2.05-1.89-.38-3.17-1.28-4.56-.66-1-1.31-1.93-.3-3.11s2.1-.74,3.13-.19c2,1.07,3.66,2.55,5.92-.08,1-1.17,2.53.77,2.79,1.88C264.84,266.79,266.6,265.37,268.55,262.22Z"/><path style="fill:#fcfcfd;" d="M284.2,216.35c-4.05-4.25-4.4-9.71-9.7-11.45.19,3.13,2.79,4.71,3.4,7.69-2.07.42-4.54.83-4.71,3.91-.09,1.58-1.33,1-2.25.71-1.59-.49-1-1.44-.33-2.2,2.63-3.13.66-4-2.13-5-5.72-2-5.75-2.13-2.27-6.54,1.3-1.65,0-2.79-.42-4.09-.64-2.11-2.7-4.35-.07-6.22,2.45-1.74,4.42.08,6,1.82,2.15,2.36,4,3.53,6.09-.07,1.24-2.12,2.54-1.14,3.07.59a31.08,31.08,0,0,1,.88,5.39c.17,1.5.53,2.66,2.43,2,1-.34,2.31-1.43,2.65.55.24,1.39.89,3.63-.59,4.11C281.88,209,283,212,284.2,216.35Z"/><path style="fill:#fcfcfd;" d="M309.34,213.73c.85-5.37,2.41-10.18,1.44-16.19-2.74,5.64-2.23,11.51-5.66,16.36.75-5.19,1.93-10.44-5.38-12.59,5-.63,5.23-2.81,3.35-6.25-1.37-2.49-3.59-5.75,2.39-5.45,2.36.12,2.24-2.5,3.07-4,.72-1.35.66-3.83,2.93-3.34,2,.45,2.43,2.57,2.46,4.47,0,2.36-1.67,5.21,3.37,4.88,1.71-.12.94,3.89-.19,6s-4.45,4,.89,6.08c1.92.76-.85,5.23-3,7.13C313.58,212,311.52,212.63,309.34,213.73Z"/><path style="fill:#fcfdfd;" d="M333.88,285.94c4.88.9,7.86,4.06,11.63,6-.84-3.71-.84-3.71-7.94-8.73,3.62-.68,7-3.87,9.31,1.69.31.75,2.39.85,3.68,1.09,2.07.39,5.18-.48,3.82,3.61-.12.36.67,1.47,1.05,1.48,5.21.08,2.76,5.66,5.46,7.53.57.4.42,1.18-.09,1.76s-9.89,1.14-10.7.54c-1.52-1.13-2.64-3-4.93-.62-1.88,2-2.74-.44-3.6-1.71-1.52-2.27-1.44-5.59-5.67-5.93C334.19,292.52,334.2,288.77,333.88,285.94Z"/><path style="fill:#fcfcfd;" d="M323,265.83c1.6-3.37,4.44-4.42,7.2-5.53,2.57-1,5.32-1.69,8.27-4.22-6.45-.36-11.25,2.86-17.1,4.1,1.58-3.24,1.34-7.14,6.34-6.28.89.15,2.11-1.44,3.14-2.27,1.71-1.38,3.2-3.78,5.67-1,.19.2.79.36.9.24,3.94-4.18,7.76,1.68,11.68.13a1.53,1.53,0,0,1,2.13.7,1.93,1.93,0,0,1-1,2.5c-1.91,1.12-3.37,2.06-2.73,5,.55,2.54-2.16,1.59-3.62,1.84-1.7.29-4.62-1.34-3.65,3,.48,2.15-2.1,1.19-3.31,1.22-2.47.07-4.82-1.27-7.08,1.69C328.55,268.52,325.54,266.74,323,265.83Z"/><path style="fill:#fbfcfc;" d="M353.54,253.32c2.86-2.33,5.34-1.19,7.51-1.81,3.41-1,7-1.47,6.83-6.32-.09-2.25,1.82-1.43,2.9-1.65,6.63-1.31,7-1.71,5.15-7.9-.31-1-.29-1.53.62-1.87,1.44-.53,3.11-.22,3.06,1.34-.12,4.37,2.14,4.55,5.36,3.62,1.4-.4,2.65-.39,3.28,1.25a3.05,3.05,0,0,1-1.3,3.9c-2.2,1.51-4.81,2.6-2.52,6.14,1,1.55-.72,1.92-1.88,1.83-1.81-.15-3.59-.58-5.4-.82-1.31-.18-2.89-.51-3.65.83-.9,1.59-.48,4.1-3.48,3.92C364.72,255.45,359.29,256,353.54,253.32Z"/><path style="fill:#fbfcfc;" d="M277.18,255.88c-1.81,2.78-1.09,5.6-1.06,8.4,0,.87.78,2.12-.65,2.5s-2.13-.42-2.43-1.79c-.67-3.06-4.87-5.67-1.16-9.31a.94.94,0,0,0,0-.92c-5.74-3.92.87-8-.14-12.08a2.41,2.41,0,0,1,1.86-2.66c1.41-.33,2,.85,2.68,1.81,2.34,3.27,2.36,3.26,6.52,3-1.91,3.65.13,7.7-2,11.37-.79,1.35.48,3.52,2.26,3.89,4.63.95,2.88,4.49,2.91,7.05a4.4,4.4,0,0,1-3.62,4.26c-2.61.38-2.41-2.35-2.79-3.92C278.55,263.63,277.93,259.74,277.18,255.88Z"/><path style="fill:#fcfcfd;" d="M308.9,254.82c-.64-1.8-1.23-3.62-1.92-5.4-.55-1.44-1.72-3.32-3-2.9-6.32,2-7-5.3-11.34-6.54-1-.28-2.16-2.57-.91-3.31,3.18-1.89,2.5-4.68,2.64-7.42.07-1.34.44-2.75,2-3.09s2.76.8,3.89,1.8c2.17,1.92,3.45,6.51,7.68,2.47.67-.65,1.64.59,1.71,1.24.32,3.09,1.84,7.62.76,9C306.58,245.52,308.59,249.91,308.9,254.82Z"/><path style="fill:#fafbfc;" d="M262,286.53a30.56,30.56,0,0,0-11.43,8.5c6.08-1.59,10.36-5.67,17.33-6.62-2.64,2.69.08,8.41-6.77,6.42-1.65-.49-2.41,1.94-3.05,3.47s-1.22,3.52-2.82,4.6c-.77.53-2.24,1.53-2.63.75-2.82-5.68-6.27-1.82-9.54-.83-1,.29-2.13.63-2.64-.45a2.76,2.76,0,0,1,.52-2.28c1.91-2.4,4.13-4.28,2.38-8.18-.81-1.82,2-2.91,4.26-2.83,1.81.06,4.11.46,2.59-2.75-.91-1.92.62-2,1.71-1.78,1.61.33,3.13,1.07,4.71,1.55s2.71,0,2.2-1.92c-.32-1.21-1.62-2.67.77-2.85,2.2-.17.55,1.73,1.05,2.55S261.54,285.62,262,286.53Z"/><path style="fill:#fcfcfd;" d="M332.15,213.05c-4.12.41-5.7,3.75-8.61,5.54-.6-1.76-1-3.47-1.75-5-.79-1.76-1-2.66,1.53-2.64,3.24,0,2.6-3.34,3.9-5s2.22-4.58,4.19-.47c.91,1.91,2.33,1.36,3.64.25,1.14-1,2.27-1.94,3.45-2.86a2.76,2.76,0,0,1,4,.34c1.36,1.35,1,2.71-.21,3.92-1.9,2-3.52,3.54-1.05,6.67,1.56,2-1.41,3.26-3,4.21-2.1,1.28-4.74,1.83-3.15,5.39.62,1.38-.9,2.36-2.21,2.82-1.75.61-1.88-.69-2-1.89,0-.17,0-.4-.11-.48C325.73,219.68,328.79,216.42,332.15,213.05Z"/><path style="fill:#fbfcfc;" d="M231.18,252.93l-4.07,1.26c-1.83.55-3-.17-1.71-1.83,2.24-2.85.22-3.24-1.75-4s-4.44-1.4-4.13-4.16,2.64-2.39,4.65-2.22c1,.09,2,0,2.12-1.43.73-6.32,3.84-2.86,5.64-1,2.15,2.17,3.54,4.12,7.39,3.37,2.62-.52,2.46,2.62,1.17,4.19-2.48,3-2.43,5.62.37,8.25.8.74,2.38,1.71.93,2.66a12.83,12.83,0,0,1-6.24,2.24c-1.52,0-.53-1.81-.24-2.83C236.27,254,234.37,253,231.18,252.93Z"/><path style="fill:#fdfdfd;" d="M229.37,278.26a25.41,25.41,0,0,0,2.4,1.43c2.18,1.07,3.45.37,3.84-2.06.26-1.64-.61-4.12,2.26-4.12a5.81,5.81,0,0,1,5.43,3.64c.76,1.85,1.29,3.59,2.91,5s.46,3.21-.86,4c-3.81,2.35-7.77,4.43-11.74,6.5a3.56,3.56,0,0,1-2.26,0c-.88-4.61-4.81-4.54-8.11-5.57-.91-.29-1.56-1.76-.38-2.37,2.6-1.32,5-2.48,4.34-6.11C227.08,278,228,277.84,229.37,278.26Z"/><path style="fill:#fcfcfd;" d="M294.54,212.76c-.9,2.68-.32,4.76-.32,6.82,0,1.49,1.94,3.71-.32,4.28-1.76.44-4.19-1.82-4.11-3.39.16-3.2-1.66-5.06-3.18-7.26-.48-.69-.95-2.07-.3-2.17,5.25-.78,2.88-4.88,3.63-7.68,1-3.71,2.87-1.4,4.29-.29,2,1.55,2.7,4.75,6.73,2.48,1.79-1,2.32,2.4,1.61,4.28-1.23,3.24-2.93,6.41,2.77,6.92,1.52.13,1,1.74.47,2.29a29.74,29.74,0,0,0-4.39,5.07c-.81,1.23-3.39-.51-4.08-2.62C296.46,218.77,296.44,215.74,294.54,212.76Z"/><path style="fill:#fbfcfc;" d="M360,216.6c-4.87.32-9,2.89-13.65,3.61-1.19.19-2.16,1.58-3.42-.11s0-2.52.88-3.32c2.51-2.35,3.54-7.78,9-4.47.43.27,1.62-.35,2.24-.83,2.54-1.95,4.78-4.16,7.87-.43,1.18,1.42,3.46-.34,5.27-.18a2.7,2.7,0,0,1,2.53,1.26c.47.91-.12,1.61-.68,2.18-3,3.1-4.65,7.21-8.71,9.77-3,1.86-4.42.64-5.89-.72-2.1-2-.46-3.36,1.47-4.46A30.89,30.89,0,0,0,360,216.6Z"/><path style="fill:#fafbfc;" d="M367,270.62l2.79-5c2.09,3.58,4.35,2.47,7.06.81,2.21-1.35,5.52-3.09,4.82,2.35-.34,2.67,1.92,2.18,3.31,2.69,2,.72,4.64.8,4.13,3.91-.45,2.82-2.78,1.56-4.43,1.71-1,.09-2.52-.37-2.69.67-.88,5.35-4.84,1.88-6.86,2.82-5,2.35-5,.09-5.54-3.53-.24-1.59-2.21-2.37-4.06-2.26l-5.53.31c2.37-3.1,5.12-1.81,7.46-1.82s4.94.43,8.58.79C373.05,271.14,370,271.61,367,270.62Z"/><path style="fill:#fbfcfc;" d="M276,237.15c-5.06.64-8.08-2.15-10-6.3-1-2.2-2.89-1.81-4.59-2.16-2.12-.44-4.06-1-2.65-3.86,1.14-2.33-.11-4.11-1.44-5.88-.9-1.2-1.9-2.44-.38-3.9,1.24-1.2,2.58-1,4.13-.54,4,1.26,7,4.14,10.49,6.17,2.21,1.28,1.45,5.75,2,8.67a63.62,63.62,0,0,0,2.41,7.9Z"/><path style="fill:#fbfbfc;" d="M236.94,269.2c-4.61-.34-9.13-.73-14.43.41,2.38,1.78,4.38,1.35,6.21,1.5,4.62.35,4.62.31,3.84,5.39a10.58,10.58,0,0,0-10.91.15c-1.2.72-2.55,1.12-3.76.24-1.47-1.08.05-2,.42-3,1.15-2.9-1.45-2.79-2.85-3.5-1.6-.81-4-1.13-3.24-3.56.65-2.24,2.76-1.08,4.3-1,2,.13,3.73,0,3.54-2.76-.33-4.65,2.1-2.43,3.79-1.38,2.23,1.38,4.28,4.57,6.36-.26.48-1.12,1.75-.26,2.5.4C234.84,263.77,236.79,265.77,236.94,269.2Z"/><path style="fill:#fcfcfd;" d="M320,347.7c5.12.17,9.19,1.23,13.4-.08,2.11-.66,4.38,1.15,5.81,3.16a62.68,62.68,0,0,1,3.65,5.32c.76,1.34,3,2.55,1.85,4.13-1,1.37-3.06.38-4.66,0-1-.26-1.9-1.27-3.24-.52-5.35,3-8.72.18-11.54-4.09C323.71,353.26,322.15,351,320,347.7Z"/><path style="fill:#fbfcfc;" d="M279.05,347.67c5.11.21,9.2,1.1,13.38-.05,2.16-.59,4.37,1.23,5.78,3.28s2.75,3.75,3.92,5.75c.68,1.16,2.75,2.23,1.48,3.7-1,1.15-2.79.26-4.24-.11-1.06-.26-1.95-1.34-3.25-.62-6,3.33-9.22-.29-12.15-4.78C282.63,352.77,281.18,350.76,279.05,347.67Z"/><path style="fill:#fbfcfc;" d="M242.51,354c.21-2.64,1.11-4.92,3.77-5.89A9.63,9.63,0,0,1,256.45,350a15.59,15.59,0,0,1,3,3.93c1.21,2.06,4.4,4.24,3.3,6.07-1.36,2.27-4.47.35-6.74-.42-1.54-.52-2.43.73-3.65,1.07C247.14,362,242.39,358.87,242.51,354Z"/><path style="fill:#fcfcfc;" d="M321.27,205.28c.49-1.53.49-3.15-.83-4.1-1.55-1.11-.95-2-.39-3.3,1.66-3.93,2.23-7.69-2.62-10-.78-.36-.7-1-.55-1.67s.78-.6,1.15-.34c2.77,2,3.73-.52,5.1-2,1-1.11,2-2.36,3.77-1.69s1.26,2.18,1.2,3.44c-.07,1.73-.13,3.17,2,3.87,3.6,1.18,3.1,3.1.82,5.43-1.07,1.09-4.36,1.82-1.31,4.36.71.59,0,1.19-.65,1.37-3,.78-4,3.22-5,5.71-.4,1-1,1.84-2.15,1.59C319.71,207.52,321.5,206.18,321.27,205.28Z"/><path style="fill:#fafbfc;" d="M294.07,194.51c1.5,6.12-3.94,4-6.25,5-1.94.87-3.55-.57-3.95-3.45-.68-4.88-2.59-5.71-7.47-4.13-.66.21-1.08.7-1.4-.26-.23-.71-.12-1.59.54-1.68,4.54-.64,3.4-3.34,2.4-6.13-.47-1.3-1.68-2.94.11-4,1.61-.94,2.64.64,3.77,1.55,1.78,1.43,2.57,4.82,6.25,2.3,1.41-1,1.61,1.73,2.18,3,.78,1.75-2.31,6.24,3.35,4.91C294.46,191.45,293.93,193.6,294.07,194.51Z"/><path style="fill:#fcfdfd;" d="M340.07,278.65c2.87-1.76,5.37-2.55,8.75-1.78,4.67,1.05,9.66,1,14.51.88,2.5-.05,4.43-.46,3.73,3,0,.16,0,.33,0,.49-.6,2.61,4.28,2.19,2.89,4.91-1,1.87-3.86,0-5.39,2.53-1.82,3-5.68,1.87-6.54-1.59-.31-1.24-.88-2.76-1.8-2.7C350,284.83,347.05,276.25,340.07,278.65Z"/><path style="fill:#fcfcfd;" d="M295.94,302c-9.32-6.3-10.77-15.39-10.65-25.12C293.36,276.78,297.25,290.9,295.94,302Z"/><path style="fill:#f7f8fa;" d="M327.2,281.62c.89-2.36,1.51-4.41,3.32-5.82,1.65-1.29,4-1.79,5.14-4.44-5.26,0-8.63,3.52-13,6-.18-4.16,4.07-6.65,5-6.69,3.61-.17,6-4,9.95-2.7,3.45,1.1,5.34-2.17,7.85-4.06-.72,2.91-3.71,5.06-1.62,8.66.69,1.18-2.34,1.7-3.85,2.23-1.9.68-5.41,0-3.2,4.06.72,1.3-.69,1.72-1.56,1.87C332.72,281.22,330.22,282.45,327.2,281.62Z"/><path style="fill:#f9fafb;" d="M267.12,260.92c-3.45-2.93-5.1-4.21-9.23-3.74-4.45.5-11.27,1.78-15.22-3.91-1.51-2.19-1.72-3.5,1-4.45,1.39-.49,3.14-.62,3.89-2,.89-1.64,1.45-1.78,2.58-.26s2.48,2.52,3.37,4.21c1.85,3.54,5.32,3.41,8.75,3.19,1.8-.12,3.68-2.17,5.45.15S266.61,257.86,267.12,260.92Z"/><path style="fill:#f9fafb;" d="M359.76,258.1c4-.33,7.15,1,8.84,3.89,1.1,1.89-6.33,9.57-8.65,8.85-3.78-1.18-3.76-4.83-3.87-8.08C356,260,355.86,257,359.76,258.1Z"/><path style="fill:#fafafb;" d="M335.34,232.85c-1.51-4.87,3.73-7.33,3.29-11.72-.09-.95,1.84.16,2.42,1.13,1.27,2.17,2.88,2.39,5,1.25,2-1,4.86-3.12,5.84,0,.79,2.55-1.85,5-4.7,5.63A60.42,60.42,0,0,0,335.34,232.85Z"/><path style="fill:#f9fafb;" d="M250.05,265.62c-1.51,2.43-3.11,5.06-4.79,7.64-.15.22-.83.23-1.21.13-2.13-.53-6.74-9.29-5.3-10.33a20,20,0,0,1,8.3-3.68c2.85-.45.61,2.95,1.91,4.13A7.86,7.86,0,0,1,250.05,265.62Z"/><path style="fill:#f6f8f9;" d="M348.23,232.07c2.06.54,5.53-1,4.85,3.63-.44,3-.39,6.29-3.84,7.22-2.47.66-7.22-5.12-7-8C342.33,232.88,344.3,231.94,348.23,232.07Z"/><path style="fill:#f5f7f9;" d="M305.27,288.26c-1.91-3.36-3.73-6.27-5.25-9.34-1-2-2.73-4.88-1.22-6.37s4.6.59,7.12-.11c1.26-.35,1.09,1.31,1.27,2.21C308,278.5,307.42,282.63,305.27,288.26Z"/><path style="fill:#f6f7f9;" d="M256.4,235c1.61,1.11,4.45-.54,4.62,2.58.13,2.32-5,9.48-6.34,8.94-3.51-1.45-4.5-4.79-4.47-8.13C250.26,233.74,254.66,236.91,256.4,235Z"/><path style="fill:#f7f8fa;" d="M276.49,227.83c-3.43-3.92.55-7.73-.29-12.19,3.15,2.12,6.67,1.58,9.06,3.86,1.51,1.45,3,2.81-.42,4.07C281.93,224.64,279.28,226.38,276.49,227.83Z"/><path style="fill:#f5f7f9;" d="M320.68,219.34c-.11,1.23.26,3.13-1.46,2.48-3.27-1.25-8.73-.32-9.51-3.14s4.2-5.1,7.18-5.38C320.55,213,319.6,217.24,320.68,219.34Z"/><path style="fill:#fbfcfc;" d="M275.87,237.25c3.82.46,7.36,2.45,11.51,1.32,2-.53,2.44,2.17,2.48,3.48.06,2.17-2,2-3.3,1.42-3.71-1.77-8.7-1.51-10.59-6.33Z"/><path style="fill:#dbe2e9;" d="M325.14,269.86c-4.42,2.4-6.05,5.19-4.8,9.43.53,1.79-1.09,2.91-3,4.19-.15-5.52.58-10.41,3.6-14.65C322,267.36,323.21,269.13,325.14,269.86Z"/><path style="fill:#eef1f5;" d="M332.44,242c3.21,4.35-.43,5.32-3,6.83C326.83,245.07,329.83,243.72,332.44,242Z"/><path style="fill:#dbe2e9;" d="M301.2,344.68c.55-2.19,1.91-3.13,3.93-2.9s2.46,1.78,2.67,3.88Z"/><path style="fill:#e7ebf0;" d="M319.44,257.19c-1.09,2.43-.59,5.14-3.32,5.59-1.41.22-1-1.35-1.07-2.18C314.79,257.47,317.09,257.83,319.44,257.19Z"/><path style="fill:#b4c2d1;" d="M282.86,344.78a1.86,1.86,0,0,1,0-.44c1.92-.88,3.87-1.69,6-.65a1.22,1.22,0,0,1,.16,1.16C286.88,347.18,284.89,345,282.86,344.78Z"/><path style="fill:#fdfdfd;" d="M1107,398.86c.25-4.26.46-8.07.7-11.89.18-2.79,1.62-4,4.49-4.18,9.42-.7,16.43,3,19.06,10.3,2.56,7.15-.3,13.42-7.36,16.1l-.46.18c-4.5,1.51-9.51,2.67-13.72,1.1C1103.81,408.28,1108.86,402.35,1107,398.86Z"/><path style="fill:#fefefe;" d="M1534,410c-.06-13.06,5.51-22.34,14.19-25.69,9.3-3.58,20.34-.69,27.52,7.66a39.24,39.24,0,0,1,9.49,31.46c-1.13,9-5.84,16-14.57,19.22-8.91,3.24-17.13.76-24.09-5.3C1537.67,429.63,1534.5,419.32,1534,410Z"/><path style="fill:#013065;" d="M327.1,422c1.71,1-.22,4.45,2,3.74,1.46-.47,3.38-3.31,2.82-5.47-.78-3-3.39-2.1-6.56-.73,2.43-3.53,3.93-6.35,1.36-9.31a2,2,0,0,0-2.64-.54c-3.51,1.64-3.05,4.74-2.91,8.2-2-1.46-4.07-3.36-5.91-.88-1.35,1.82,1,4.05-.53,6.43,2.87-1.3,2.87-1.3,4-3.24,2,2,1.64,3.76-.1,5.45-2.59,2.54-8.29,2.06-13-1.46,4.71.89,5.12-1.49,4.71-4.63-.18-1.38-.44-2.22-2.12-1.7-.79.25-2.14.95-2.15-.79,0-4.45-3.32-1.89-5.09-2.31s-3.32.17-2.3,2.71c.35.87-.46,1-1.17.75-3.45-1.44-3.19.73-3.45,3.13-.46,4.2,2.56,2.46,4.67,2.58-3.54,3.43-8.85,4.38-11.94,2.3-2.26-1.51-3.11-3.42-1.26-5.86,1.92.15,1.1,3.87,3.2,2.8.92-.47.83-3,1.1-4.63A2.05,2.05,0,0,0,288,416c-2.55-.58-3.7,1.11-4.71,3.21-.28-3.49,1.67-7.33-2.65-9.48a2.15,2.15,0,0,0-3,.79c-2.76,3.38,0,6.09,1.23,9.26-1.9-1.39-3.67-2.54-5.69-.66a2.11,2.11,0,0,0-.23,3.09c.84,1.23,1.52,3.49,2.44,3.58,2.6.28.6-2.68,2.31-4,2.59,2.77,2.27,5.21-.49,7.4-4,3.2-9.14,2.44-12.19-1.73a54.94,54.94,0,0,1-7.1-12c-2.22-5.53-3.18-11,1.09-16,4.46-5.16,10.4-6.46,16.81-5,4.52,1,8.89,2.71,13.34,4,3.44,1,6,.82,5.23-3.89a9.52,9.52,0,0,1,0-2.5c.09-1,.23-2.16,1.56-2.08s1.18,1.36,1.19,2.28c0,5,.37,10-.08,15-.42,4.53,1.84,4.65,5.25,4.66s5.32-.16,4.94-4.4c-.42-4.8-.12-9.66-.08-14.48,0-1.26-.36-3,1.57-3,1.67,0,1.19,1.66,1.28,2.73.56,7.06.73,7.21,7.71,5.13,3.66-1.09,7.21-2.6,10.93-3.42,6.42-1.4,12.36-.14,16.8,5,4.25,4.94,3.25,10.52,1.11,16-1.83,4.69-4.71,8.8-7.69,12.79-2.85,3.83-9.79,3.7-12.71-.11C324.52,426,324.33,423.73,327.1,422Z"/><path style="fill:#063468;" d="M302.23,462.3c-7.82,0-15.63-.38-23.17-2.62-2.57-.76-6-1.4-6.14-4.92s3.19-4.43,5.83-5.1a92.68,92.68,0,0,1,46.75,0c2.53.66,5.59,1.49,5.71,4.72.14,3.63-3.25,4.32-5.84,5.14C317.85,461.92,310.05,462.28,302.23,462.3Z"/><path style="fill:#063469;" d="M267.48,439.8c-2.38.45-4,.15-4.48-2.86-.59-3.33-1.92-6.53-3.13-10.44a13.17,13.17,0,0,1,1.62,1.52c1.67,2.62,2.81,6.74,5.08,7.5s5.67-2,8.69-2.78c20.47-5.28,40.8-5.4,60.7,2.51,2.52,1,3.08.18,4-1.68a63.89,63.89,0,0,1,3.2-5.62,19.57,19.57,0,0,1,1.81-2.1c-1.42,4.7-2.52,8.72-3.88,12.66-1.08,3.1-2.86.89-4.31.28-21.87-9.32-43.94-8.87-66.13-1.33-1.2.41-3,.54-3.23,2.41Z"/><path style="fill:#083569;" d="M274.46,460a10.54,10.54,0,0,1-6.08-2.63c-4.16-3.25-4.12-7,.11-10.27,3.66-2.8,8-4,12.42-4.9a99.64,99.64,0,0,1,45.5.86,31.74,31.74,0,0,1,7.82,3.13c6.15,3.54,6.09,8.5,0,12.21a32.36,32.36,0,0,1-3.2,1.54c-.89-.26-.87-.43-.44-.75,2.52-1.88,5.87-3.63,5.15-7.25-.64-3.21-4.06-4.15-6.91-5-17.49-5.46-35.05-5.32-52.6-.37-3.14.88-7.06,1.78-7.84,5.38C267.56,455.74,271.52,457.3,274.46,460Z"/><path style="fill:#113c6f;" d="M308,383.8l-5.79,6.07a10.32,10.32,0,0,0-5.14-5.25c1.74-1.84,3.49-3.67,5.23-5.5C303.94,381,304.47,383.94,308,383.8Z"/><path style="fill:#164172;" d="M314.6,396.92a2.63,2.63,0,0,1-2.44-2.58,2.25,2.25,0,0,1,2.49-2.39,2.22,2.22,0,0,1,2.41,2.44C317,395.93,316,396.65,314.6,396.92Z"/><path style="fill:#174172;" d="M256.79,398.1a2.34,2.34,0,0,1-2.56-2.35,2.37,2.37,0,0,1,2.38-2.57,2.46,2.46,0,0,1,.18,4.92Z"/><path style="fill:#164172;" d="M350.25,395.52c0,1.49-.69,2.47-2.28,2.56a2.25,2.25,0,0,1-2.57-2.28,2.38,2.38,0,0,1,2.31-2.62C349.22,393.07,350.05,394,350.25,395.52Z"/><path style="fill:#184273;" d="M254.89,403.23a2.6,2.6,0,0,1-2.39,2.64,2.23,2.23,0,0,1-2.55-2.32A2.19,2.19,0,0,1,252.2,401C253.79,400.87,254.51,401.86,254.89,403.23Z"/><path style="fill:#194374;" d="M354.83,403.4c-.34,1.39-1.06,2.49-2.58,2.49a2.27,2.27,0,0,1-2.39-2.5,2.19,2.19,0,0,1,2.43-2.42C353.88,401,354.53,402,354.83,403.4Z"/><path style="fill:#133e70;" d="M281.85,389.09c1.38.36,2.33,1.16,2.19,2.72a2.45,2.45,0,0,1-4.88-.43A2.48,2.48,0,0,1,281.85,389.09Z"/><path style="fill:#174273;" d="M255,412.31c-.42,1.56-1.22,2.62-2.72,2.52a2.3,2.3,0,0,1-2.29-2.61,2.21,2.21,0,0,1,2.56-2.29C254.15,410,254.69,411.12,255,412.31Z"/><path style="fill:#133e70;" d="M258,421A2.4,2.4,0,0,1,255.1,423a2.21,2.21,0,0,1-1.94-2.84,2.27,2.27,0,0,1,2.86-2A2.45,2.45,0,0,1,258,421Z"/><path style="fill:#164072;" d="M331.56,387.14c1.37.34,2.47,1,2.47,2.56a2.47,2.47,0,0,1-4.94,0C329.09,388.16,330.2,387.48,331.56,387.14Z"/><path style="fill:#164172;" d="M284.56,440c-1.58-.47-2.61-1.3-2.39-2.87a2.26,2.26,0,0,1,2.86-2,2.23,2.23,0,0,1,2,2.43C287,439.09,285.81,439.65,284.56,440Z"/><path style="fill:#1c4575;" d="M301.8,391.13c1.84.11,2.78,1.05,2.86,2.45a2.42,2.42,0,0,1-4.84.19A2.54,2.54,0,0,1,301.8,391.13Z"/><path style="fill:#0e3a6d;" d="M266.83,391.08c-.57,1.75-1.58,2.43-3.09,2.14s-2-1.51-1.71-3a2.1,2.1,0,0,1,2.56-1.71A2.65,2.65,0,0,1,266.83,391.08Z"/><path style="fill:#184273;" d="M304.71,408.1a2.41,2.41,0,0,1-2.79,2.17,2.06,2.06,0,0,1-2.08-2.29,2.25,2.25,0,0,1,2.43-2.5C303.79,405.52,304.57,406.59,304.71,408.1Z"/><path style="fill:#1d4676;" d="M304.72,400.7a2.33,2.33,0,0,1-2.34,2.48,2.13,2.13,0,0,1-2.55-2.22,2.28,2.28,0,0,1,2.22-2.63C303.54,398.24,304.38,399.24,304.72,400.7Z"/><path style="fill:#1c4675;" d="M290.25,396.88a2.51,2.51,0,0,1-2.75-2.3,2.2,2.2,0,0,1,2.17-2.62,2.16,2.16,0,0,1,2.62,2.17A2.41,2.41,0,0,1,290.25,396.88Z"/><path style="fill:#0e3a6d;" d="M340.18,388.44c1.61.26,2.61,1.11,2.55,2.62a2.22,2.22,0,0,1-2.67,2.2,2.06,2.06,0,0,1-2.12-2.23A2.38,2.38,0,0,1,340.18,388.44Z"/><path style="fill:#103c6e;" d="M302.12,433.62a2.28,2.28,0,0,1,2.56,2.32,2.17,2.17,0,0,1-2.47,2.35,2.06,2.06,0,0,1-2.26-2A2.21,2.21,0,0,1,302.12,433.62Z"/><path style="fill:#0e3a6d;" d="M349.79,423c-2.26.15-3.12-.87-3.16-2.3a2.28,2.28,0,0,1,2.42-2.52,2.22,2.22,0,0,1,2.29,2.14A2.3,2.3,0,0,1,349.79,423Z"/><path style="fill:#103c6e;" d="M267.38,439.87a8,8,0,0,1,2.39,1.62,2.29,2.29,0,0,1-.28,3.17,2.34,2.34,0,0,1-2.79.31,2,2,0,0,1-1-2.89,15.4,15.4,0,0,1,1.8-2.28Z"/><path style="fill:#143f71;" d="M352.3,409.93a2.2,2.2,0,0,1,2.25,2.65,2.32,2.32,0,0,1-2.76,2.21,2.25,2.25,0,0,1-2-2.45A2.2,2.2,0,0,1,352.3,409.93Z"/><path style="fill:#154071;" d="M272.89,387.19a2.4,2.4,0,0,1,2.48,2.52,2.12,2.12,0,0,1-2,2.38,2.2,2.2,0,0,1-2.74-2.13C270.48,388.42,271.4,387.53,272.89,387.19Z"/><path style="fill:#1a4474;" d="M322.28,437.56c-.23,1.48-1,2.48-2.62,2.26a2.3,2.3,0,0,1-2.13-2.78A2.2,2.2,0,0,1,319.9,435C321.56,435,322.19,436,322.28,437.56Z"/><path style="fill:#0a376b;" d="M339,443.33a2.18,2.18,0,0,1-2.65,1.87,2.15,2.15,0,0,1-2.15-2.19,2.27,2.27,0,0,1,2.45-2.44C338.05,440.6,339.11,441.43,339,443.33Z"/><path style="fill:#09366a;" d="M322.84,389.12a2.32,2.32,0,0,1,2.45,2.48,2.16,2.16,0,0,1-2,2.39,2.22,2.22,0,0,1-2.71-2.16A2.41,2.41,0,0,1,322.84,389.12Z"/><path style="fill:#214a79;" d="M252.69,589.4c-3.59-.94-5-2.76-4.46-4.92,1.07-4.25,5.24-4.17,9-5.86C255.78,582.93,247.66,582.64,252.69,589.4Z"/><path style="fill:#385c86;" d="M300.65,648.71a21.83,21.83,0,0,1,12.57.19C308.81,651.56,306,651.55,300.65,648.71Z"/><path style="fill:#355a84;" d="M314.78,636.5c3.55-2.1,6.9-1.08,11.48-.34C321.58,639,318.14,638.29,314.78,636.5Z"/><path style="fill:#154072;" d="M325.11,560.73c2.51,1.14,4.9,2.19,7.24,3.34a1.39,1.39,0,0,1,.56,1.19,1.22,1.22,0,0,1-1,.76,25.46,25.46,0,0,1-8.18-3,1.31,1.31,0,0,1-.24-1.26A6,6,0,0,1,325.11,560.73Z"/><path style="fill:#194374;" d="M293.77,565.2c-2.18,2.54-4.83,3.44-7.21,4.71a1.57,1.57,0,0,1-2.44-.76,1.44,1.44,0,0,1,.89-2C287.71,566.38,290.19,564.51,293.77,565.2Z"/><path style="fill:#09366a;" d="M307.28,642.68a20,20,0,0,1,11.58.14A12.78,12.78,0,0,1,307.28,642.68Z"/><path style="fill:#2e5581;" d="M266.9,573.23c-.3.77-1.27,1.9-1.36,1.65-1-2.94-4.77.08-5.26-2.29-.37-1.77,1.61-2.69,3.43-2.48A3.32,3.32,0,0,1,266.9,573.23Z"/><path style="fill:#133f70;" d="M295.51,571.35a12.9,12.9,0,0,1-6.36,3.72c-1,.34-2.08.3-2.3-1-.19-1.17.53-1.85,1.67-2C290.4,571.83,292.29,571.67,295.51,571.35Z"/><path style="fill:#1e4877;" d="M333.2,570.74c-.69.6-.8.8-.92.8a11.13,11.13,0,0,1-7-2.39c-.13-.1.12-1.13.32-1.18C328.57,567.28,330.65,569.05,333.2,570.74Z"/><path style="fill:#3a5e87;" d="M295.53,579.23c-2.8,1.92-4.87,2.6-7.19,1.4a1.4,1.4,0,0,1-.11-1.31C290.24,577.31,292.36,578.35,295.53,579.23Z"/><path style="fill:#164072;" d="M297.65,655.81a13,13,0,0,1,8.65-.3C303.12,658,300.41,656.86,297.65,655.81Z"/><path style="fill:#103c6e;" d="M345.42,577c-1.08,0-1.5.14-1.7,0-1.71-1.34-4.3-1.75-4.77-4.38-.05-.23.67-.89.9-.83A7.54,7.54,0,0,1,345.42,577Z"/><path style="fill:#184373;" d="M343.9,582.41c-3.52-.42-5.18-1.15-5.95-3.2-.09-.24.5-1.05.73-1C340.91,578.34,341.87,580.06,343.9,582.41Z"/><path style="fill:#164172;" d="M325.27,574c3.12-.39,4.66.54,7,2.58C329,576.8,327.19,576.46,325.27,574Z"/><path style="fill:#1a4474;" d="M293.23,586.66c-1.78.53-3.46,1.1-5.09-.52C290.84,584.81,290.84,584.81,293.23,586.66Z"/><path style="fill:#0a376b;" d="M240.57,669a12.94,12.94,0,0,1,5.79,2.69c-3.46,1.78-3.87,5.39-5.61,8.19-2.78,4.47-5.7,5.68-9.37,3.63-4.08-2.26-3.91-5.53-2.4-9.39,1.21-3.12,4.25-5.66,2.79-9.74a12.76,12.76,0,0,1,6.11,3.11c-2.91,1.38-7.22,8.61-6.83,11.56.35,2.61,1.87,3.93,4.5,3C238.57,680.89,241.83,672.68,240.57,669Z"/><path style="fill:#0f3b6d;" d="M200.32,662.65A23.06,23.06,0,0,0,208,648c8.17,4.42,9.08,5.81,6.44,10-2.2-.63.08-2.27-.73-3.25s-1.52-2.23-2.63-2c-1.59.26-1.69,2.15-2.41,3.35a1.45,1.45,0,0,0,1,2.3c5.2.58,1,2.77,1.16,4.31-2.58.16-1-4.65-3.85-2.95a3.69,3.69,0,0,0-1.57,4.77c1.35,2.62,3.38,1.69,5.51.72-.78,3.13-1.5,5.72-5,2.28C204.14,665.76,202.16,664.23,200.32,662.65Z"/><path style="fill:#103c6e;" d="M201.72,641.17c2.73,3.08,6.7,4.55,1.13,7.41-2.41,1.24-4.13,3.79-6.24,5.64-.79.69-1.47,2.1-2.86,1.32s-.84-2-.77-3.15c.4-6.06,2.42-11.91,2.21-18.18,4,3.12,4,3.11,2.17,7.44a5.13,5.13,0,0,0-.23,1.47c-.22,2.62-1.49,5.11-.88,8.31C198.8,648.63,202.49,647.07,201.72,641.17Z"/><path style="fill:#0e3a6d;" d="M258.71,682.6c-1.37-1.56.4-4.24-2-4.45-2.12-.19-2.17,2.24-2.69,3.63-1.23,3.27-4.42,6.08-2.66,10.27-2.47,0-4.34-1.27-6.44-2.52,4.66-2.8,5.16-7.92,7.24-12.08,1-1.93-1-2.08-2.22-1.91-1,.14-1.34,2.06-2.87,1.3.91-4.61.93-4.64,4.56-3.06,2.28,1,4.48,2.17,6.77,3.13C262.13,678.46,261.66,680.28,258.71,682.6Z"/><path style="fill:#0e3b6d;" d="M220.57,657.05a39,39,0,0,1,3.42,2.12c1.32,1,3.84,1.14-.12,3.11-2.85,1.41-4.27,6.52-5.4,10.26-.67,2.21,1.76,3,3.91,2.56.85-.17,1.3-1.66,2.79-.62-.88,3.17-2.18,4.92-5.65,2.4-2-1.45-4.15-2.7-6.29-4.07C217.54,668.3,220.22,663.3,220.57,657.05Z"/><path style="fill:#0c396c;" d="M363.75,687.41c2-2.84,1-4.76-.39-6.36-1-1.12-2.13.06-3.11.55a3.4,3.4,0,0,0-1.24,4.77c3.18,4.71-1.37,3.66-3.1,4.82,1.63-5.48.79-11.08,1.76-16.49.47-2.61,7.65-8.28,10.13-7.8a2.65,2.65,0,0,1,2,3c0,1.13-1,1.09-1.75.39-2.21-2-4.18-.32-4.81,1.19-.73,1.75.55,4.34,2.15,5s3.27-.87,3.71-2.94c0-.16.5-.23.86-.39a6.32,6.32,0,0,1,1.94,4.49c-2.1.05-4.95-1.27-5.43,1.91-.18,1.17.72,3.65,2.05,3.64,2.8,0,4.71-1.84,4.73-5.31C376.51,682.37,374.88,684,363.75,687.41Z"/><path style="fill:#0b386b;" d="M405.18,657.51c.07,5.57-3.09,9.43-7.9,9.62-4.17.17-7.83-4-8-9.12-.13-4.9,4.31-9.91,8.72-9.84C401.9,648.22,405.11,652.43,405.18,657.51Z"/><path style="fill:#103c6e;" d="M371.32,665.28c1.68-2,3.83-2.77,5.93-3.7-.57,5.15,3.9,7,6.52,10.07-.43-4,1.23-8-2.31-11.77-1.24-1.3,2.58-2.48,4.44-4-.94,6.23.48,11.9.35,17.62,0,1.3.42,2.85-1.24,3.39-1.34.44-2-.87-2.85-1.62C378.53,672,376,667.56,371.32,665.28Z"/><path style="fill:#0e3b6d;" d="M320.29,751.71c-4.85-.16-8.21-3.84-8.13-8.89A8.73,8.73,0,0,1,321,734c4.66.1,7.91,3.64,7.81,8.5C328.72,747.64,324.81,751.87,320.29,751.71Z"/><path style="fill:#0b386b;" d="M295.08,734.64a17.72,17.72,0,0,1,8.3-.28c3.45.7,5.72,2.52,3.16,6.18-1.07,1.53-.68,1.75.46,2.87,2.79,2.77,1.7,6.5-2.15,7.45a18.39,18.39,0,0,1-9.32.06C297.72,747.19,297.62,737.88,295.08,734.64Z"/><path style="fill:#113c6f;" d="M292.67,750.82c-2.54,1.13-4.33.78-5.55-2-.73-1.66-1.14-4.91-3.52-3.81-2.67,1.23-.32,3.84.54,6.34-2.7-.6-6.87,2.23-4.88-4,.95-3,1.11-7-.1-9.83-1.85-4.29.69-3.3,2.81-3.33a12.26,12.26,0,0,1,6.74,1.36c1.85,1.11,2.52,3.37,1.35,4.76C286,745.15,290.69,747.5,292.67,750.82Z"/><path style="fill:#09366a;" d="M338.85,750.91c-2.44.48-4.22.62-6,0,2-5.43,1.33-10.76.54-16.5,2.38-.8,5.46-.33,8.48.5,2.41.67,3.6,2.42,3,4.94-1.59,6.31-1.6,6.48,2.1,11-2.67,1.22-4.29.46-5.42-2.22-.71-1.68-1.35-4.92-3.59-3.69C335.88,746.05,336.83,748.89,338.85,750.91Z"/><path style="fill:#0a376a;" d="M259.2,751c2.64-4.52,3.53-9.49,5.57-14,.53-1.15.47-2.86,2.23-2.89s1.71,1.67,2.22,2.83c1.94,4.48,2.45,9.55,5.54,13.55-3.94,1.13-3.92,1.12-4.8-2.17-.54-2-2.22-1.66-3.66-1.64-1.26,0-3.53-.11-3.05,1.48C265.08,754.21,260.43,750,259.2,751Z"/><path style="fill:#41648c;" d="M253.46,511c7-1.91,12.18,3.36,18.43,4.6C265.17,516.6,260.13,510.49,253.46,511Z"/><path style="fill:#496b91;" d="M273,491.21c-7.68.31-12.75-5.72-19.57-4.64C257.07,484.23,260.06,485,273,491.21Z"/><path style="fill:#355a85;" d="M252.47,494.74c4.85-1.67,4.85-1.67,20.63,4.73C264.89,499.73,259.58,493.21,252.47,494.74Z"/><path style="fill:#3f628b;" d="M252.32,502.79c7.55-2.67,13,3.22,19.56,4.54-3.66,1.13-6.6-1-9.66-2.31A30.85,30.85,0,0,0,252.32,502.79Z"/><path style="fill:#507095;" d="M218.9,490.67c6.41-1.07,11.57-6.79,18.81-4.75C231,485.78,225.8,491.43,218.9,490.67Z"/><path style="fill:#46688f;" d="M237.64,511c-6.68-.37-11.76,5.47-18.54,4.7C225.35,514.4,230.57,509.12,237.64,511Z"/><path style="fill:#395d87;" d="M219.25,499.07c6.42-1.52,11.91-7,19.25-4.69-3.25.69-6.59.73-9.71,2.31C225.85,498.19,222.79,499.73,219.25,499.07Z"/><path style="fill:#3a5e88;" d="M238.52,502.7a31,31,0,0,0-10.07,2.46c-3,1.39-5.89,2.94-9.41,2.36C225.59,506,231,500.36,238.52,502.7Z"/><path style="fill:#46688f;" d="M350.65,511.08c-6.69-.57-11.73,5.5-18.45,4.6C338.46,514.43,343.61,509.07,350.65,511.08Z"/><path style="fill:#42658d;" d="M350.7,486c-6.73-.43-11.8,5.48-18.57,4.69C338.43,489.42,343.59,484.06,350.7,486Z"/><path style="fill:#385c86;" d="M351.65,494.49c-7-.92-12.46,5-19.38,4.63C338.74,497.61,344.22,492,351.65,494.49Z"/><path style="fill:#3f628b;" d="M351.61,502.69c-7.12-.57-12.5,5.13-19.42,4.83C338.68,505.75,344.21,500.49,351.61,502.69Z"/><path style="fill:#4b6c92;" d="M365.65,486c7.42-2.69,12.82,3.46,19.43,4.49-3.61,1.37-6.62-.63-9.57-2.12C372.33,486.78,368.9,487.06,365.65,486Z"/><path style="fill:#4d6e93;" d="M385.12,515.69c-7.08.64-12.39-5.56-19.49-4.3C373.19,508.19,378.62,514.73,385.12,515.69Z"/><path style="fill:#3d618a;" d="M365.63,494.6c7.46-3,12.7,3.35,19.25,4.3C378,499.62,372.61,493.42,365.63,494.6Z"/><path style="fill:#3c6089;" d="M385.16,507.46c-7.07.47-12.48-5.59-19.75-4.63C373,500.12,378.5,506.08,385.16,507.46Z"/><path style="fill:#f2f5f7;" d="M294.07,409.81c-2.71-1.09-4.6-3.53-7.9-2.47,2,2.2,5.33,3,6.43,6.42-3.32-.09-5.94-.28-7.65-3.67-1.2-2.37-3.75-4.2-6.55-3.5s-4.06,3.24-4.54,6c-.11.65.15,1.7-.19,1.93-5.36,3.57-3.95,8.34-1.41,14-6.43-5.17-6.43-7.09-1-16.61-4.1,1-4.6,1.49-7.3,7.69-2.55-5.81.1-10.79,6.45-11.57a15.31,15.31,0,0,0,6.84-2.4,14.7,14.7,0,0,1,12.93-1.44C292.37,405,295.09,405.93,294.07,409.81Z"/><path style="fill:#fbfbfc;" d="M344.59,412.66c-5.72-9.46-16.4-7.53-23.63-12.59,6.45-2.92,13.31-5.42,20.33-.65C345.94,402.57,346.47,407.19,344.59,412.66Z"/><path style="fill:#fbfcfc;" d="M284.32,400.68c-6.54.4-11.52,4.73-17.74,5.6-3,.42-4.79,3.27-6.31,6.9-2-5.44-1.74-9.53,2-13C267.22,395.63,275.33,395.78,284.32,400.68Z"/><path style="fill:#f3f5f8;" d="M327.05,406a35.1,35.1,0,0,0,7.91,2.2c5.87.9,8.24,6.4,5.68,12.09-1.79-5.56-2.38-6.33-7.63-9,3.58,5.43,7.1,10.86.15,16.43,4.54-9.28-3.26-14.8-6.05-21.84Z"/><path style="fill:#f5f7f9;" d="M327.11,406c-3.52.68-6.67,1.82-8.35,5.44-1.3,2.81-4.23,1.47-6.77,3.55.74-4.79,4.54-5.16,6.13-7.63-3.29-1-5.23,1.63-7.72,2.67-1.07-2.94.66-4.33,2.74-5.15,4.78-1.9,9.55-2.33,13.91,1.2Z"/><path style="fill:#fdfdfd;" d="M328.36,454.71c-3,2.79-6.87,3.11-10.57,3.63-12.58,1.78-25.14,1.89-37.55-1.3-1.58-.41-4-.66-4.06-2.29-.12-2.17,2.5-2.26,4.1-2.63a95.76,95.76,0,0,1,43.39-.06C325.38,452.45,327.25,452.78,328.36,454.71Z"/><path style="fill:#dae1e8;" d="M359.28,672.77c1.72,2.67,3.38,4,2.39,6.07a2.88,2.88,0,0,1-2,.9C358.31,678,359.33,676.07,359.28,672.77Z"/><path style="fill:#fafbfc;" d="M392.15,655.48c.16-2.18,1.09-4.42,4.18-4.73s6.06,4.1,6.1,8.5c0,2.91-.73,5.48-4.23,5.58C395.39,664.92,392.17,660,392.15,655.48Z"/><path style="fill:#fcfcfd;" d="M325.28,742.59c-.2,3.55-.78,7.1-4.83,7.12s-4.74-3.64-4.69-6.9.5-6.79,4.8-6.82S324.92,739.67,325.28,742.59Z"/><path style="fill:#f3f5f7;" d="M300,746.36c.14-1.4-.48-3.26,2.13-2.75,1.76.34,3.23.94,3.23,3s-1.44,2.91-3.19,3.09C299.38,750,300.19,747.79,300,746.36Z"/><path style="fill:#f3f5f7;" d="M300,738.73c.21-1.22-.54-3,1.78-2.74,1.75.19,2.77,1.17,2.67,3a2.81,2.81,0,0,1-3,2.71C299.11,741.69,300.48,739.69,300,738.73Z"/><path style="fill:#d8dfe7;" d="M282.46,739.53c.37-1.39-.83-3.75,2-3.55,1.93.13,2.81,1.59,2.84,3.44a3,3,0,0,1-3,3.28C281.71,742.92,282.83,740.74,282.46,739.53Z"/><path style="fill:#f1f3f6;" d="M337,739c.39-1.11-.79-3,1.52-3a3.21,3.21,0,0,1,3.32,3.54,3,3,0,0,1-3.21,3.11C335.72,742.6,337.66,740.15,337,739Z"/><path style="fill:#d1d9e3;" d="M266.53,738.67c.62,2,2.75,3.83,1.31,6.07a2.93,2.93,0,0,1-2.73,0C263.53,742.49,265.72,740.75,266.53,738.67Z"/></g></g></svg>